#N canvas 246 96 1354 805 10;
#N canvas 181 202 326 445 metronome 0;
#X obj 68 226 snapshot~;
#X obj 94 191 bang~;
#X obj 69 340 i;
#X floatatom 68 130 5 0 0 0 - - -, f 5;
#X floatatom 63 71 5 0 350 0 - - -, f 5;
#X obj 64 100 / 60;
#X msg 132 61 0;
#X obj 117 20 loadbang;
#X obj 68 158 phasor~ 1;
#X msg 93 50 60;
#X obj 43 13 inlet;
#X obj 79 392 outlet;
#X obj 66 318 * 360;
#X obj 119 250 * 24;
#X obj 119 271 i;
#X obj 119 292 / 24;
#X text 124 321 divide clock into 360 steps;
#X obj 70 365 change -1;
#X obj 56 40 abs;
#X connect 0 0 12 0;
#X connect 1 0 0 0;
#X connect 2 0 17 0;
#X connect 3 0 8 0;
#X connect 4 0 5 0;
#X connect 5 0 3 0;
#X connect 6 0 8 1;
#X connect 7 0 6 0;
#X connect 7 0 9 0;
#X connect 8 0 0 0;
#X connect 9 0 4 0;
#X connect 10 0 18 0;
#X connect 12 0 2 0;
#X connect 13 0 14 0;
#X connect 14 0 15 0;
#X connect 17 0 11 0;
#X connect 18 0 4 0;
#X restore 90 201 pd metronome;
#X floatatom 33 94 5 0 0 0 - - -, f 5;
#X msg 182 147 0;
#X msg 199 116 60;
#X obj 124 283 s beat-clock;
#X msg 80 67 1000;
#X msg 207 67 500;
#N canvas 4 50 450 300 simple 0;
#X obj 111 133 osc~ 440;
#X obj 210 121 vline~;
#X msg 210 91 0 2 \, 1 10 3 \, 0 300 6;
#X obj 202 161 *~;
#X obj 149 19 inlet;
#X obj 149 41 t b f;
#X obj 183 223 *~;
#X obj 188 259 outlet~;
#X connect 0 0 6 1;
#X connect 1 0 3 1;
#X connect 1 0 3 0;
#X connect 2 0 1 0;
#X connect 3 0 6 0;
#X connect 4 0 5 0;
#X connect 5 0 2 0;
#X connect 5 1 0 0;
#X connect 6 0 7 0;
#X restore 90 388 pd simple;
#X obj 90 326 sel 0;
#X obj 456 90 r beat-clock;
#X obj 90 232 clockfix;
#X msg 525 153 stop;
#X msg 566 153 arm;
#X obj 275 651 throw~ outL;
#X obj 416 7 r notes;
#N canvas 26 50 1054 732 simple-synth 0;
#X obj 302 494 +~;
#X obj 587 257 osc~ 5;
#X floatatom 701 112 5 0 0 0 - - -, f 5;
#X obj 651 218 line~;
#X obj 653 258 *~ 10;
#X obj 605 293 *~;
#X obj 453 489 line~;
#X obj 433 526 *~;
#X obj 371 585 *~;
#X obj 278 386 mtof~;
#X obj 201 216 loadbang;
#X msg 201 238 60;
#N canvas 13 50 950 622 buzzysine 0;
#X obj 231 221 -~ 1;
#X obj 231 243 abs~;
#X obj 230 287 *~;
#X obj 231 166 /~ 5000;
#X obj 230 191 clip~ 0 5000;
#X text 294 154 sorta arbitrary scale of harmonic content amount to
avoid aliasing... assumes 44.1k sampling rate .....;
#X obj 171 98 inlet~;
#X obj 200 555 outlet~;
#X obj 174 457 s_buzz;
#X obj 229 375 *~ 0.4;
#X connect 0 0 1 0;
#X connect 1 0 2 1;
#X connect 1 0 2 0;
#X connect 2 0 9 0;
#X connect 3 0 4 0;
#X connect 4 0 0 0;
#X connect 6 0 3 0;
#X connect 6 0 8 0;
#X connect 8 0 7 0;
#X connect 9 0 8 1;
#X restore 302 533 pd buzzysine;
#X obj 646 170 pack 0 1000;
#X obj 312 426 /~ 440;
#X obj 321 453 *~;
#X obj 350 89 unpack;
#X obj 354 119 swap;
#X obj 356 144 pack;
#X obj 344 181 route 0;
#X obj 395 211 unpack 0 0;
#X obj 419 297 f;
#X text 409 181 note on;
#X obj 338 242 t f b;
#X obj 440 242 t b f f;
#X obj 375 355 ==;
#X obj 375 380 sel 1;
#X obj 276 355 line~;
#X obj 657 146 + 0.0666;
#X obj 717 43 inlet;
#X obj 346 47 inlet;
#X obj 384 652 outlet~;
#X text 327 17 note in;
#X text 726 28 virbrato;
#X msg 286 328 \$1 10;
#X obj 418 431 pack 0 20;
#X msg 515 430 1 5;
#X connect 0 0 12 0;
#X connect 1 0 5 0;
#X connect 2 0 28 0;
#X connect 3 0 4 0;
#X connect 4 0 5 1;
#X connect 5 0 15 1;
#X connect 6 0 7 0;
#X connect 6 0 7 1;
#X connect 7 0 8 1;
#X connect 8 0 31 0;
#X connect 9 0 0 0;
#X connect 9 0 14 0;
#X connect 10 0 11 0;
#X connect 11 0 34 0;
#X connect 12 0 8 0;
#X connect 13 0 3 0;
#X connect 14 0 15 0;
#X connect 15 0 0 1;
#X connect 16 0 17 0;
#X connect 16 1 17 1;
#X connect 17 0 18 0;
#X connect 17 1 18 1;
#X connect 18 0 19 0;
#X connect 19 0 23 0;
#X connect 19 1 20 0;
#X connect 20 1 24 0;
#X connect 21 0 25 1;
#X connect 23 0 25 0;
#X connect 23 1 21 0;
#X connect 24 0 36 0;
#X connect 24 1 34 0;
#X connect 24 2 21 1;
#X connect 25 0 26 0;
#X connect 26 0 35 0;
#X connect 27 0 9 0;
#X connect 28 0 13 0;
#X connect 29 0 2 0;
#X connect 30 0 16 0;
#X connect 34 0 27 0;
#X connect 35 0 6 0;
#X connect 36 0 6 0;
#X restore 325 521 pd simple-synth;
#N canvas 7 50 468 388 kill-stuck 0;
#X obj 167 212 bag;
#X msg 203 161 flush;
#X msg 160 254 \$1 0;
#X obj 124 157 t a a;
#X obj 137 354 outlet;
#X obj 101 22 inlet;
#X obj 258 20 inlet;
#X obj 238 107 bang;
#X obj 114 102 route note;
#X obj 248 61 route end stop;
#X connect 0 0 2 0;
#X connect 1 0 0 0;
#X connect 2 0 4 0;
#X connect 3 0 4 0;
#X connect 3 1 0 0;
#X connect 5 0 8 0;
#X connect 6 0 9 0;
#X connect 7 0 1 0;
#X connect 8 0 3 0;
#X connect 9 0 7 0;
#X connect 9 1 7 0;
#X restore 458 250 pd kill-stuck;
#X obj 395 413 poly 4 1;
#X obj 397 442 pack 0 0 0;
#X obj 396 470 route 1 2 3 4;
#N canvas 20 50 1054 732 simple-synth 0;
#X obj 302 494 +~;
#X obj 587 257 osc~ 5;
#X floatatom 701 112 5 0 0 0 - - -, f 5;
#X obj 651 218 line~;
#X obj 653 258 *~ 10;
#X obj 605 293 *~;
#X obj 453 489 line~;
#X obj 433 526 *~;
#X obj 371 585 *~;
#X obj 278 386 mtof~;
#X obj 201 216 loadbang;
#X msg 201 238 60;
#N canvas 9 50 950 622 buzzysine 0;
#X obj 231 221 -~ 1;
#X obj 231 243 abs~;
#X obj 230 287 *~;
#X obj 231 166 /~ 5000;
#X obj 230 191 clip~ 0 5000;
#X text 294 154 sorta arbitrary scale of harmonic content amount to
avoid aliasing... assumes 44.1k sampling rate .....;
#X obj 171 98 inlet~;
#X obj 200 555 outlet~;
#X obj 229 375 *~ 0.25;
#X obj 174 457 s_buzz;
#X connect 0 0 1 0;
#X connect 1 0 2 1;
#X connect 1 0 2 0;
#X connect 2 0 8 0;
#X connect 3 0 4 0;
#X connect 4 0 0 0;
#X connect 6 0 3 0;
#X connect 6 0 9 0;
#X connect 8 0 9 1;
#X connect 9 0 7 0;
#X restore 302 533 pd buzzysine;
#X obj 646 170 pack 0 1000;
#X obj 312 426 /~ 440;
#X obj 321 453 *~;
#X obj 350 89 unpack;
#X obj 354 119 swap;
#X obj 356 144 pack;
#X obj 344 181 route 0;
#X obj 395 211 unpack 0 0;
#X obj 419 297 f;
#X text 409 181 note on;
#X obj 338 242 t f b;
#X obj 440 242 t b f f;
#X obj 375 355 ==;
#X obj 375 380 sel 1;
#X obj 276 355 line~;
#X obj 657 146 + 0.0666;
#X obj 717 43 inlet;
#X obj 346 47 inlet;
#X obj 384 652 outlet~;
#X text 327 17 note in;
#X text 726 28 virbrato;
#X msg 286 328 \$1 10;
#X obj 418 431 pack 0 20;
#X msg 515 430 1 5;
#X connect 0 0 12 0;
#X connect 1 0 5 0;
#X connect 2 0 28 0;
#X connect 3 0 4 0;
#X connect 4 0 5 1;
#X connect 5 0 15 1;
#X connect 6 0 7 0;
#X connect 6 0 7 1;
#X connect 7 0 8 1;
#X connect 8 0 31 0;
#X connect 9 0 0 0;
#X connect 9 0 14 0;
#X connect 10 0 11 0;
#X connect 11 0 34 0;
#X connect 12 0 8 0;
#X connect 13 0 3 0;
#X connect 14 0 15 0;
#X connect 15 0 0 1;
#X connect 16 0 17 0;
#X connect 16 1 17 1;
#X connect 17 0 18 0;
#X connect 17 1 18 1;
#X connect 18 0 19 0;
#X connect 19 0 23 0;
#X connect 19 1 20 0;
#X connect 20 1 24 0;
#X connect 21 0 25 1;
#X connect 23 0 25 0;
#X connect 23 1 21 0;
#X connect 24 0 36 0;
#X connect 24 1 34 0;
#X connect 24 2 21 1;
#X connect 25 0 26 0;
#X connect 26 0 35 0;
#X connect 27 0 9 0;
#X connect 28 0 13 0;
#X connect 29 0 2 0;
#X connect 30 0 16 0;
#X connect 34 0 27 0;
#X connect 35 0 6 0;
#X connect 36 0 6 0;
#X restore 443 522 pd simple-synth;
#N canvas 19 50 1054 732 simple-synth 0;
#X obj 302 494 +~;
#X obj 587 257 osc~ 5;
#X floatatom 701 112 5 0 0 0 - - -, f 5;
#X obj 651 218 line~;
#X obj 653 258 *~ 10;
#X obj 605 293 *~;
#X obj 453 489 line~;
#X obj 433 526 *~;
#X obj 371 585 *~;
#X obj 278 386 mtof~;
#X obj 201 216 loadbang;
#X msg 201 238 60;
#N canvas 8 50 950 622 buzzysine 0;
#X obj 231 221 -~ 1;
#X obj 231 243 abs~;
#X obj 230 287 *~;
#X obj 231 166 /~ 5000;
#X obj 230 191 clip~ 0 5000;
#X text 294 154 sorta arbitrary scale of harmonic content amount to
avoid aliasing... assumes 44.1k sampling rate .....;
#X obj 171 98 inlet~;
#X obj 200 555 outlet~;
#X obj 229 375 *~ 0.25;
#X obj 174 457 s_buzz;
#X connect 0 0 1 0;
#X connect 1 0 2 1;
#X connect 1 0 2 0;
#X connect 2 0 8 0;
#X connect 3 0 4 0;
#X connect 4 0 0 0;
#X connect 6 0 3 0;
#X connect 6 0 9 0;
#X connect 8 0 9 1;
#X connect 9 0 7 0;
#X restore 302 533 pd buzzysine;
#X obj 646 170 pack 0 1000;
#X obj 312 426 /~ 440;
#X obj 321 453 *~;
#X obj 350 89 unpack;
#X obj 354 119 swap;
#X obj 356 144 pack;
#X obj 344 181 route 0;
#X obj 395 211 unpack 0 0;
#X obj 419 297 f;
#X text 409 181 note on;
#X obj 338 242 t f b;
#X obj 440 242 t b f f;
#X obj 375 355 ==;
#X obj 375 380 sel 1;
#X obj 276 355 line~;
#X obj 657 146 + 0.0666;
#X obj 717 43 inlet;
#X obj 346 47 inlet;
#X obj 384 652 outlet~;
#X text 327 17 note in;
#X text 726 28 virbrato;
#X msg 286 328 \$1 10;
#X obj 418 431 pack 0 20;
#X msg 515 430 1 5;
#X connect 0 0 12 0;
#X connect 1 0 5 0;
#X connect 2 0 28 0;
#X connect 3 0 4 0;
#X connect 4 0 5 1;
#X connect 5 0 15 1;
#X connect 6 0 7 0;
#X connect 6 0 7 1;
#X connect 7 0 8 1;
#X connect 8 0 31 0;
#X connect 9 0 0 0;
#X connect 9 0 14 0;
#X connect 10 0 11 0;
#X connect 11 0 34 0;
#X connect 12 0 8 0;
#X connect 13 0 3 0;
#X connect 14 0 15 0;
#X connect 15 0 0 1;
#X connect 16 0 17 0;
#X connect 16 1 17 1;
#X connect 17 0 18 0;
#X connect 17 1 18 1;
#X connect 18 0 19 0;
#X connect 19 0 23 0;
#X connect 19 1 20 0;
#X connect 20 1 24 0;
#X connect 21 0 25 1;
#X connect 23 0 25 0;
#X connect 23 1 21 0;
#X connect 24 0 36 0;
#X connect 24 1 34 0;
#X connect 24 2 21 1;
#X connect 25 0 26 0;
#X connect 26 0 35 0;
#X connect 27 0 9 0;
#X connect 28 0 13 0;
#X connect 29 0 2 0;
#X connect 30 0 16 0;
#X connect 34 0 27 0;
#X connect 35 0 6 0;
#X connect 36 0 6 0;
#X restore 561 521 pd simple-synth;
#N canvas 20 50 1054 732 simple-synth 0;
#X obj 302 494 +~;
#X obj 587 257 osc~ 5;
#X floatatom 701 112 5 0 0 0 - - -, f 5;
#X obj 651 218 line~;
#X obj 653 258 *~ 10;
#X obj 605 293 *~;
#X obj 453 489 line~;
#X obj 433 526 *~;
#X obj 371 585 *~;
#X obj 278 386 mtof~;
#X obj 201 216 loadbang;
#X msg 201 238 60;
#N canvas 9 50 950 622 buzzysine 0;
#X obj 231 221 -~ 1;
#X obj 231 243 abs~;
#X obj 230 287 *~;
#X obj 231 166 /~ 5000;
#X obj 230 191 clip~ 0 5000;
#X text 294 154 sorta arbitrary scale of harmonic content amount to
avoid aliasing... assumes 44.1k sampling rate .....;
#X obj 171 98 inlet~;
#X obj 200 555 outlet~;
#X obj 229 375 *~ 0.25;
#X obj 174 457 s_buzz;
#X connect 0 0 1 0;
#X connect 1 0 2 1;
#X connect 1 0 2 0;
#X connect 2 0 8 0;
#X connect 3 0 4 0;
#X connect 4 0 0 0;
#X connect 6 0 3 0;
#X connect 6 0 9 0;
#X connect 8 0 9 1;
#X connect 9 0 7 0;
#X restore 302 533 pd buzzysine;
#X obj 646 170 pack 0 1000;
#X obj 312 426 /~ 440;
#X obj 321 453 *~;
#X obj 350 89 unpack;
#X obj 354 119 swap;
#X obj 356 144 pack;
#X obj 344 181 route 0;
#X obj 395 211 unpack 0 0;
#X obj 419 297 f;
#X text 409 181 note on;
#X obj 338 242 t f b;
#X obj 440 242 t b f f;
#X obj 375 355 ==;
#X obj 375 380 sel 1;
#X obj 276 355 line~;
#X obj 657 146 + 0.0666;
#X obj 717 43 inlet;
#X obj 346 47 inlet;
#X obj 384 652 outlet~;
#X text 327 17 note in;
#X text 726 28 virbrato;
#X msg 286 328 \$1 10;
#X obj 418 431 pack 0 20;
#X msg 515 430 1 5;
#X connect 0 0 12 0;
#X connect 1 0 5 0;
#X connect 2 0 28 0;
#X connect 3 0 4 0;
#X connect 4 0 5 1;
#X connect 5 0 15 1;
#X connect 6 0 7 0;
#X connect 6 0 7 1;
#X connect 7 0 8 1;
#X connect 8 0 31 0;
#X connect 9 0 0 0;
#X connect 9 0 14 0;
#X connect 10 0 11 0;
#X connect 11 0 34 0;
#X connect 12 0 8 0;
#X connect 13 0 3 0;
#X connect 14 0 15 0;
#X connect 15 0 0 1;
#X connect 16 0 17 0;
#X connect 16 1 17 1;
#X connect 17 0 18 0;
#X connect 17 1 18 1;
#X connect 18 0 19 0;
#X connect 19 0 23 0;
#X connect 19 1 20 0;
#X connect 20 1 24 0;
#X connect 21 0 25 1;
#X connect 23 0 25 0;
#X connect 23 1 21 0;
#X connect 24 0 36 0;
#X connect 24 1 34 0;
#X connect 24 2 21 1;
#X connect 25 0 26 0;
#X connect 26 0 35 0;
#X connect 27 0 9 0;
#X connect 28 0 13 0;
#X connect 29 0 2 0;
#X connect 30 0 16 0;
#X connect 34 0 27 0;
#X connect 35 0 6 0;
#X connect 36 0 6 0;
#X restore 679 518 pd simple-synth;
#X obj 344 578 *~ 0.2;
#X obj 537 420 print;
#X obj 717 653 loadbang;
#X obj 717 696 tgl 15 0 empty empty empty 17 7 0 10 -262144 -1 -1 1
1;
#X obj 853 698 tgl 15 0 empty empty empty 17 7 0 10 -262144 -1 -1 1
1;
#X msg 717 720 quantize-length \$1;
#X msg 853 722 loop \$1;
#X obj 497 123 seq-format-event note;
#X obj 549 355 print;
#X obj 926 101 r beat-clock;
#X msg 995 164 stop;
#X msg 1036 164 arm;
#N canvas 7 50 468 388 kill-stuck 0;
#X obj 167 212 bag;
#X msg 203 161 flush;
#X msg 160 254 \$1 0;
#X obj 124 157 t a a;
#X obj 137 354 outlet;
#X obj 101 22 inlet;
#X obj 258 20 inlet;
#X obj 238 107 bang;
#X obj 114 102 route note;
#X obj 248 61 route end stop;
#X connect 0 0 2 0;
#X connect 1 0 0 0;
#X connect 2 0 4 0;
#X connect 3 0 4 0;
#X connect 3 1 0 0;
#X connect 5 0 8 0;
#X connect 6 0 9 0;
#X connect 7 0 1 0;
#X connect 8 0 3 0;
#X connect 9 0 7 0;
#X connect 9 1 7 0;
#X restore 928 261 pd kill-stuck;
#X obj 967 134 seq-format-event note;
#X obj 472 211 seq seq1;
#X msg 604 153 play;
#X msg 664 153 play-sync;
#X msg 1074 164 play;
#X msg 1134 164 play-sync;
#X obj 942 222 seq seq2;
#X msg 90 359 880;
#X obj 160 474 *~ 0.4;
#X connect 0 0 10 0;
#X connect 1 0 0 0;
#X connect 2 0 0 0;
#X connect 3 0 0 0;
#X connect 5 0 0 0;
#X connect 6 0 0 0;
#X connect 7 0 44 0;
#X connect 8 0 43 0;
#X connect 9 0 37 0;
#X connect 10 0 4 0;
#X connect 10 0 8 0;
#X connect 11 0 37 2;
#X connect 12 0 37 2;
#X connect 14 0 17 0;
#X connect 14 0 30 0;
#X connect 14 0 36 0;
#X connect 15 0 23 0;
#X connect 16 0 17 0;
#X connect 17 0 18 0;
#X connect 17 1 18 1;
#X connect 17 2 18 2;
#X connect 18 0 19 0;
#X connect 19 0 15 0;
#X connect 19 1 20 0;
#X connect 19 2 21 0;
#X connect 19 3 22 0;
#X connect 20 0 23 0;
#X connect 21 0 23 0;
#X connect 22 0 23 0;
#X connect 23 0 13 0;
#X connect 25 0 26 0;
#X connect 25 0 27 0;
#X connect 26 0 28 0;
#X connect 27 0 29 0;
#X connect 30 0 37 1;
#X connect 32 0 42 0;
#X connect 33 0 42 2;
#X connect 34 0 42 2;
#X connect 35 0 17 0;
#X connect 36 0 42 1;
#X connect 37 0 16 0;
#X connect 37 1 31 0;
#X connect 37 1 16 1;
#X connect 38 0 37 2;
#X connect 39 0 37 2;
#X connect 40 0 42 2;
#X connect 41 0 42 2;
#X connect 42 0 35 0;
#X connect 42 1 35 1;
#X connect 43 0 7 0;
#X connect 44 0 13 0;
