#N canvas 71 23 848 766 10;
#X obj 171 491 spigot;
#X obj 193 575 s \$0-get-next;
#X obj 198 267 r \$0-get-next;
#X text 335 219 rewind;
#X obj 369 686 outlet;
#N canvas 217 115 500 306 count-up 0;
#X obj 224 144 + 1;
#X msg 230 99 0;
#X obj 125 47 inlet;
#X obj 163 194 outlet;
#X obj 303 37 inlet;
#X text 348 38 reset;
#X text 211 196 count;
#X text 171 44 inc;
#X obj 168 144 f 0;
#X obj 167 169 t f f;
#X connect 0 0 8 1;
#X connect 1 0 8 1;
#X connect 2 0 8 0;
#X connect 4 0 1 0;
#X connect 8 0 9 0;
#X connect 9 0 3 0;
#X connect 9 1 0 0;
#X restore 237 332 pd count-up;
#X obj 260 377 text get \$1 -1;
#X obj 253 495 spigot;
#X text 428 441 if a valid entry \, let it through \, otherwise block
;
#X obj 286 267 t b b b;
#N canvas 5 50 449 248 check-line 0;
#X msg 150 91 0;
#X obj 158 63 sel 2 0;
#X msg 192 93 1;
#X obj 164 33 inlet;
#X obj 136 160 outlet;
#X connect 0 0 4 0;
#X connect 1 0 0 0;
#X connect 1 1 2 0;
#X connect 2 0 4 0;
#X connect 3 0 1 0;
#X restore 337 437 pd check-line;
#N canvas 5 50 600 521 compare-times 0;
#X obj 220 142 list split 1;
#X obj 256 349 list, f 5;
#X obj 254 380 list trim;
#X obj 184 250 >=;
#X obj 201 285 sel 1;
#X obj 201 312 t b b;
#X text 297 218 wait until sequcned clock advances then send out event
and get next., f 26;
#X obj 169 221 f;
#X obj 197 175 t b f;
#X obj 126 77 inlet;
#X text 101 42 seq clock;
#X obj 237 77 inlet;
#X text 255 49 event;
#X obj 376 81 inlet;
#X obj 376 103 bang;
#X msg 376 125 0;
#X text 372 57 zero it out;
#X obj 257 417 outlet;
#X obj 153 424 outlet;
#X connect 0 0 8 0;
#X connect 0 1 1 1;
#X connect 1 0 2 0;
#X connect 2 0 17 0;
#X connect 3 0 4 0;
#X connect 4 0 5 0;
#X connect 5 0 18 0;
#X connect 5 1 1 0;
#X connect 7 0 3 0;
#X connect 8 0 7 0;
#X connect 8 1 3 1;
#X connect 9 0 7 0;
#X connect 11 0 0 0;
#X connect 13 0 14 0;
#X connect 14 0 15 0;
#X connect 15 0 7 1;
#X restore 208 536 pd compare-times;
#X obj 302 570 route length;
#X text 349 261 zero out the last stored seq clock time \, reset line
counter \, get first line;
#X obj 295 608 / 360;
#X obj 295 628 i;
#X obj 295 655 * 360;
#X obj 296 682 s \$0len;
#X text 417 685 events;
#X obj 186 137 clocker;
#X obj 293 221 sel 0;
#X msg 95 86 length \$1;
#X obj 78 57 r \$0len;
#X obj 185 50 inlet;
#X obj 307 51 inlet;
#X obj 518 684 outlet;
#X text 566 683 sequence clock;
#X text 349 50 controls;
#X text 227 51 beat clock;
#X obj 188 167 t f f f f, f 52;
#X obj 133 256 ==;
#X obj 185 204 r \$0len;
#X obj 128 282 sel 1;
#X obj 123 323 s \$0end;
#X obj 690 636 r \$0end;
#X obj 690 687 outlet;
#X obj 163 233 - 1;
#X text 738 671 bang at end;
#X text 519 159 first pass seq clock out (for overdubbing?). lastly
bang at end., f 42;
#X connect 0 0 11 0;
#X connect 2 0 5 0;
#X connect 5 0 6 0;
#X connect 6 0 7 0;
#X connect 6 1 10 0;
#X connect 7 0 11 1;
#X connect 9 0 5 0;
#X connect 9 1 5 1;
#X connect 9 2 11 2;
#X connect 10 0 0 1;
#X connect 10 0 7 1;
#X connect 11 0 1 0;
#X connect 11 1 12 0;
#X connect 12 0 14 0;
#X connect 12 1 4 0;
#X connect 14 0 15 0;
#X connect 15 0 16 0;
#X connect 16 0 17 0;
#X connect 19 0 29 0;
#X connect 20 0 9 0;
#X connect 21 0 19 0;
#X connect 22 0 21 0;
#X connect 23 0 19 0;
#X connect 24 0 19 0;
#X connect 29 0 30 0;
#X connect 29 1 0 0;
#X connect 29 2 20 0;
#X connect 29 3 25 0;
#X connect 30 0 32 0;
#X connect 31 0 36 0;
#X connect 32 0 33 0;
#X connect 34 0 35 0;
#X connect 36 0 30 1;
