#N canvas 349 111 1191 782 10;
#X msg 786 527 clear;
#X msg 575 260 loop \$1;
#X msg 638 261 quantize-length \$1;
#X obj 67 74 inlet;
#X obj 67 103 s \$0beat-clock;
#X obj 171 408 r \$0beat-clock;
#X obj 223 495 seq-player \$1;
#X obj 652 470 seq-recorder \$1;
#X obj 786 554 text define -k \$1;
#A set 0 length 2836 \; 0 note 76 100 \; 106 note 76 0 \; 172 note
76 100 \; 269 note 76 0 \; 696 note 74 100 \; 818 note 74 0 \; 894
note 74 100 \; 1005 note 74 0 \; 1439 note 72 100 \; 1538 note 72 0
\; 1610 note 72 100 \; 1722 note 72 0 \;;
#X obj 422 77 inlet;
#X obj 422 114 s \$0notes-in;
#X obj 658 79 inlet;
#X obj 686 378 r \$0notes-in;
#X obj 183 678 outlet;
#X msg 919 260 stop;
#X obj 946 189 t b b;
#X msg 973 259 stop;
#X msg 828 260 start-sync;
#X obj 865 188 t b b b;
#X obj 1001 193 t b b b;
#X msg 1019 259 arm;
#X obj 578 380 r \$0beat-clock;
#X obj 802 673 outlet;
#X text 720 77 controls;
#X obj 754 501 t b b;
#X msg 754 607 rec;
#X text 251 679 events out;
#X text 476 74 events in;
#X msg 662 616 end;
#X msg 680 560 length \$1;
#X obj 323 406 r \$0player;
#X obj 793 313 s \$0player;
#X obj 994 303 s \$0recorder;
#X obj 781 378 r \$0recorder;
#X obj 789 191 t b b b;
#X msg 780 259 start;
#X text 129 74 clock;
#X text 886 674 send all status out;
#X obj 689 152 route loop quantize-length play play-sync stop arm;
#X obj 647 117 t a a;
#X obj 587 148 s \$0status;
#X obj 906 602 r \$0status;
#X obj 902 332 s \$0status;
#X text 985 333 send out stop status too;
#X connect 0 0 8 0;
#X connect 1 0 31 0;
#X connect 2 0 31 0;
#X connect 3 0 4 0;
#X connect 5 0 6 0;
#X connect 6 0 13 0;
#X connect 6 1 28 0;
#X connect 7 0 29 0;
#X connect 7 1 24 0;
#X connect 9 0 10 0;
#X connect 11 0 39 0;
#X connect 12 0 7 1;
#X connect 14 0 31 0;
#X connect 14 0 42 0;
#X connect 15 0 14 0;
#X connect 15 1 16 0;
#X connect 16 0 32 0;
#X connect 17 0 31 0;
#X connect 18 0 17 0;
#X connect 18 1 14 0;
#X connect 18 2 16 0;
#X connect 19 0 20 0;
#X connect 19 1 14 0;
#X connect 19 2 16 0;
#X connect 20 0 32 0;
#X connect 21 0 7 0;
#X connect 24 0 25 0;
#X connect 24 1 0 0;
#X connect 25 0 22 0;
#X connect 28 0 22 0;
#X connect 29 0 22 0;
#X connect 30 0 6 1;
#X connect 33 0 7 2;
#X connect 34 0 35 0;
#X connect 34 1 14 0;
#X connect 34 2 16 0;
#X connect 35 0 31 0;
#X connect 38 0 1 0;
#X connect 38 1 2 0;
#X connect 38 2 34 0;
#X connect 38 3 18 0;
#X connect 38 4 15 0;
#X connect 38 5 19 0;
#X connect 39 0 40 0;
#X connect 39 1 38 0;
#X connect 41 0 22 0;
