#N canvas 370 136 928 696 10;
#X obj 316 513 mtof;
#X obj 404 622 dac~;
#N canvas 0 23 450 300 simple 0;
#X obj 111 133 osc~ 440;
#X obj 210 121 vline~;
#X msg 210 91 0 2 \, 1 10 3 \, 0 300 6;
#X obj 202 161 *~;
#X obj 149 19 inlet;
#X obj 149 41 t b f;
#X obj 183 223 *~;
#X obj 188 259 outlet~;
#X connect 0 0 6 1;
#X connect 1 0 3 1;
#X connect 1 0 3 0;
#X connect 2 0 1 0;
#X connect 3 0 6 0;
#X connect 4 0 5 0;
#X connect 5 0 2 0;
#X connect 5 1 0 0;
#X connect 6 0 7 0;
#X restore 315 551 pd simple;
#N canvas 181 202 326 445 metronome 0;
#X obj 68 226 snapshot~;
#X obj 94 191 bang~;
#X obj 69 340 i;
#X floatatom 68 130 5 0 0 0 - - -;
#X floatatom 63 71 5 0 350 0 - - -;
#X obj 64 100 / 60;
#X msg 132 61 0;
#X obj 117 20 loadbang;
#X obj 68 158 phasor~ 1;
#X msg 93 50 60;
#X obj 48 19 inlet;
#X obj 79 392 outlet;
#X obj 66 318 * 360;
#X obj 119 250 * 24;
#X obj 119 271 i;
#X obj 119 292 / 24;
#X text 124 321 divide clock into 360 steps;
#X obj 70 365 change -1;
#X connect 0 0 12 0;
#X connect 1 0 0 0;
#X connect 2 0 17 0;
#X connect 3 0 8 0;
#X connect 4 0 5 0;
#X connect 5 0 3 0;
#X connect 6 0 8 1;
#X connect 7 0 6 0;
#X connect 7 0 9 0;
#X connect 8 0 0 0;
#X connect 9 0 4 0;
#X connect 10 0 4 0;
#X connect 12 0 2 0;
#X connect 13 0 14 0;
#X connect 14 0 15 0;
#X connect 17 0 11 0;
#X restore 456 182 pd metronome;
#X floatatom 434 109 5 0 0 0 - - -;
#X msg 485 117 0;
#X msg 529 109 60;
#X obj 456 264 s beat-clock;
#X msg 525 84 1000;
#X msg 489 82 500;
#X obj 313 199 r beat-clock;
#X obj 160 241 clocker;
#X msg 151 145 start;
#X msg 136 123 start-sync;
#N canvas 0 23 450 300 simple 0;
#X obj 111 133 osc~ 440;
#X obj 210 121 vline~;
#X msg 210 91 0 2 \, 1 10 3 \, 0 300 6;
#X obj 202 161 *~;
#X obj 149 19 inlet;
#X obj 149 41 t b f;
#X obj 183 223 *~;
#X obj 188 259 outlet~;
#X connect 0 0 6 1;
#X connect 1 0 3 1;
#X connect 1 0 3 0;
#X connect 2 0 1 0;
#X connect 3 0 6 0;
#X connect 4 0 5 0;
#X connect 5 0 2 0;
#X connect 5 1 0 0;
#X connect 6 0 7 0;
#X restore 505 544 pd simple;
#X msg 272 498 600;
#X msg 424 349 400;
#X msg 64 36 length 720;
#X msg 84 57 length 360;
#X msg 105 79 length 180;
#X msg 121 101 length 60;
#X floatatom 410 265 5 0 0 0 - - -;
#X obj 191 310 sel 0;
#X obj 424 313 sel 0;
#X msg 210 191 loop \$1;
#X obj 210 170 tgl 15 0 empty empty empty 17 7 0 10 -262144 -1 -1 0
1;
#X msg 162 167 stop;
#X obj 149 272 t f f;
#X obj 214 464 print;
#X obj 727 363 text define -k seq-1;
#A set 0 length 1447 \; 0 note 72 100 \; 349 note 72 100 \; 667 note
72 100 \; 877 note 72 100 \; 1063 note 72 100 \;;
#N canvas 0 23 450 300 simple 0;
#X obj 111 133 osc~ 440;
#X obj 210 121 vline~;
#X msg 210 91 0 2 \, 1 10 3 \, 0 300 6;
#X obj 202 161 *~;
#X obj 149 19 inlet;
#X obj 149 41 t b f;
#X obj 183 223 *~;
#X obj 188 259 outlet~;
#X connect 0 0 6 1;
#X connect 1 0 3 1;
#X connect 1 0 3 0;
#X connect 2 0 1 0;
#X connect 3 0 6 0;
#X connect 4 0 5 0;
#X connect 5 0 2 0;
#X connect 5 1 0 0;
#X connect 6 0 7 0;
#X restore 146 547 pd simple;
#X obj 64 443 route note;
#X obj 77 483 unpack;
#X obj 101 516 mtof;
#X obj 762 178 bng 15 250 50 0 empty empty empty 17 7 0 10 -262144
-1 -1;
#X obj 674 183 bng 15 250 50 0 empty empty empty 17 7 0 10 -262144
-1 -1;
#X obj 642 112 r beat-clock;
#X obj 683 416 text define -k seq-bak;
#A set 0 length 720 \; 0 note 70 100 \; 180 note 70 0 \; 200 note 71
100 \; 300 note 71 0 \; 400 note 65 100 \; 500 note 65 0 \; 600 note
69 100 \; 650 note 69 0 \;;
#X msg 764 301 clear;
#X floatatom 638 292 5 0 0 0 - - -;
#X obj 660 246 seq-recorder seq-1;
#X obj 295 359 / 360;
#X obj 295 379 i;
#X floatatom 295 421 5 0 0 0 - - -;
#X obj 295 400 * 360;
#X msg 739 113 note 72 100;
#X msg 39 15 length 6120;
#X msg 285 443 length \$1;
#X obj 129 380 seq-player seq-1;
#X text 791 179 arm;
#X text 695 180 stop;
#X floatatom 515 340 5 0 0 0 - - -;
#X obj 507 367 text get seq-1 -1;
#X obj 505 399 print;
#X obj 456 213 clockint;
#X connect 0 0 2 0;
#X connect 2 0 1 0;
#X connect 3 0 54 0;
#X connect 4 0 3 0;
#X connect 5 0 3 0;
#X connect 6 0 3 0;
#X connect 8 0 3 0;
#X connect 9 0 3 0;
#X connect 10 0 11 0;
#X connect 11 0 27 0;
#X connect 12 0 11 0;
#X connect 13 0 11 0;
#X connect 14 0 1 1;
#X connect 15 0 2 0;
#X connect 16 0 14 0;
#X connect 17 0 11 0;
#X connect 18 0 11 0;
#X connect 19 0 11 0;
#X connect 20 0 11 0;
#X connect 21 0 23 0;
#X connect 22 0 48 1;
#X connect 23 0 16 0;
#X connect 24 0 11 0;
#X connect 25 0 24 0;
#X connect 26 0 11 0;
#X connect 27 0 48 0;
#X connect 27 1 22 0;
#X connect 30 0 1 0;
#X connect 31 0 32 0;
#X connect 32 0 33 0;
#X connect 33 0 30 0;
#X connect 34 0 40 3;
#X connect 35 0 40 1;
#X connect 36 0 40 0;
#X connect 38 0 29 0;
#X connect 40 0 39 0;
#X connect 40 1 38 0;
#X connect 41 0 42 0;
#X connect 42 0 44 0;
#X connect 43 0 47 0;
#X connect 44 0 43 0;
#X connect 45 0 40 2;
#X connect 46 0 11 0;
#X connect 47 0 28 0;
#X connect 47 0 11 0;
#X connect 48 0 31 0;
#X connect 48 1 41 0;
#X connect 51 0 52 0;
#X connect 52 0 53 0;
#X connect 54 0 7 0;
#X connect 54 0 21 0;
