#N canvas 98 81 947 678 10;
#X obj 296 561 dac~;
#N canvas 181 202 326 445 metronome 0;
#X obj 68 226 snapshot~;
#X obj 94 191 bang~;
#X obj 69 340 i;
#X floatatom 68 130 5 0 0 0 - - -;
#X floatatom 63 71 5 0 350 0 - - -;
#X obj 64 100 / 60;
#X msg 132 61 0;
#X obj 117 20 loadbang;
#X obj 68 158 phasor~ 1;
#X msg 93 50 60;
#X obj 43 13 inlet;
#X obj 79 392 outlet;
#X obj 66 318 * 360;
#X obj 119 250 * 24;
#X obj 119 271 i;
#X obj 119 292 / 24;
#X text 124 321 divide clock into 360 steps;
#X obj 70 365 change -1;
#X obj 56 40 abs;
#X connect 0 0 12 0;
#X connect 1 0 0 0;
#X connect 2 0 17 0;
#X connect 3 0 8 0;
#X connect 4 0 5 0;
#X connect 5 0 3 0;
#X connect 6 0 8 1;
#X connect 7 0 6 0;
#X connect 7 0 9 0;
#X connect 8 0 0 0;
#X connect 9 0 4 0;
#X connect 10 0 18 0;
#X connect 12 0 2 0;
#X connect 13 0 14 0;
#X connect 14 0 15 0;
#X connect 17 0 11 0;
#X connect 18 0 4 0;
#X restore 456 182 pd metronome;
#X floatatom 434 109 5 0 0 0 - - -;
#X msg 485 117 0;
#X msg 529 109 60;
#X obj 478 261 s beat-clock;
#X msg 525 84 1000;
#X msg 489 82 500;
#N canvas 0 23 450 300 simple 0;
#X obj 111 133 osc~ 440;
#X obj 210 121 vline~;
#X msg 210 91 0 2 \, 1 10 3 \, 0 300 6;
#X obj 202 161 *~;
#X obj 149 19 inlet;
#X obj 149 41 t b f;
#X obj 183 223 *~;
#X obj 188 259 outlet~;
#X connect 0 0 6 1;
#X connect 1 0 3 1;
#X connect 1 0 3 0;
#X connect 2 0 1 0;
#X connect 3 0 6 0;
#X connect 4 0 5 0;
#X connect 5 0 2 0;
#X connect 5 1 0 0;
#X connect 6 0 7 0;
#X restore 424 375 pd simple;
#X msg 424 346 400;
#X floatatom 424 284 5 0 0 0 - - -;
#X obj 424 313 sel 0;
#X obj 763 336 text define -k seq-1;
#A set 0 length 2939 \; 0 note 72 100 \; 601 note 72 100 \; 1085 note
72 100 \; 1803 note 72 100 \; 2354 note 72 100 \;;
#N canvas 0 23 450 300 simple 0;
#X obj 111 133 osc~ 440;
#X obj 210 121 vline~;
#X msg 210 91 0 2 \, 1 10 3 \, 0 300 6;
#X obj 202 161 *~;
#X obj 149 19 inlet;
#X obj 149 41 t b f;
#X obj 183 223 *~;
#X obj 188 259 outlet~;
#X connect 0 0 6 1;
#X connect 1 0 3 1;
#X connect 1 0 3 0;
#X connect 2 0 1 0;
#X connect 3 0 6 0;
#X connect 4 0 5 0;
#X connect 5 0 2 0;
#X connect 5 1 0 0;
#X connect 6 0 7 0;
#X restore 103 482 pd simple;
#X obj 101 404 route note;
#X obj 102 428 unpack;
#X obj 103 457 mtof;
#X obj 642 112 r beat-clock;
#X msg 764 301 clear;
#X floatatom 638 292 5 0 0 0 - - -;
#X obj 660 246 seq-recorder seq-1;
#X msg 739 113 note 72 100;
#X obj 86 274 seq-player seq-1;
#X obj 456 213 clockfix;
#X msg 191 79 start;
#X msg 169 57 start-sync;
#X msg 258 125 loop \$1;
#X obj 258 104 tgl 15 0 empty empty empty 17 7 0 10 -262144 -1 -1 0
1;
#X msg 210 101 stop;
#X obj 86 177 r beat-clock;
#X floatatom 179 303 5 0 0 0 - - -;
#X msg 769 182 stop;
#X msg 810 182 arm;
#X obj 119 302 bng 15 250 50 0 empty empty empty 17 7 0 10 -262144
-1 -1;
#X obj 263 162 tgl 15 0 empty empty empty 17 7 0 10 -262144 -1 -1 1
1;
#X msg 263 184 quantize-length \$1;
#X obj 180 324 / 360;
#X floatatom 180 345 5 0 0 0 - - -;
#X connect 1 0 23 0;
#X connect 2 0 1 0;
#X connect 3 0 1 0;
#X connect 4 0 1 0;
#X connect 6 0 1 0;
#X connect 7 0 1 0;
#X connect 8 0 0 1;
#X connect 9 0 8 0;
#X connect 10 0 11 0;
#X connect 11 0 9 0;
#X connect 13 0 0 0;
#X connect 14 0 15 0;
#X connect 15 0 16 0;
#X connect 16 0 13 0;
#X connect 17 0 20 0;
#X connect 18 0 12 0;
#X connect 20 0 19 0;
#X connect 20 1 18 0;
#X connect 21 0 20 1;
#X connect 22 0 14 0;
#X connect 22 1 33 0;
#X connect 22 2 30 0;
#X connect 23 0 5 0;
#X connect 23 0 10 0;
#X connect 24 0 22 1;
#X connect 25 0 22 1;
#X connect 26 0 22 1;
#X connect 27 0 26 0;
#X connect 28 0 22 1;
#X connect 29 0 22 0;
#X connect 30 0 36 0;
#X connect 31 0 20 2;
#X connect 32 0 20 2;
#X connect 34 0 35 0;
#X connect 35 0 22 1;
#X connect 36 0 37 0;
