#N canvas 382 118 1432 765 10;
#X obj 163 427 vsl 15 128 0 1 0 0 empty empty empty 0 -9 0 10 -262144
-1 -1 0 1;
#X obj 260 419 vsl 15 128 1 20 0 0 empty empty empty 0 -9 0 10 -262144
-1 -1 11124 1;
#X floatatom 260 568 5 0 0 0 - - -, f 5;
#X floatatom 458 198 5 0 0 0 - - -, f 5;
#X floatatom 163 572 5 0 0 0 - - -, f 5;
#N canvas 381 96 415 596 metronome 0;
#X obj 68 226 snapshot~;
#X obj 94 191 bang~;
#X obj 81 274 i;
#X obj 68 323 change;
#X floatatom 68 130 5 0 0 0 - - -, f 5;
#X floatatom 63 71 5 0 350 0 - - -, f 5;
#X obj 64 100 / 60;
#X msg 132 61 0;
#X obj 117 20 loadbang;
#X obj 68 158 phasor~ 1;
#X msg 93 50 60;
#X obj 48 19 inlet;
#X obj 65 378 outlet;
#X text 124 279 divide clock into steps;
#X obj 81 252 * 120;
#X obj 81 296 / 120;
#X connect 0 0 14 0;
#X connect 1 0 0 0;
#X connect 2 0 15 0;
#X connect 3 0 12 0;
#X connect 4 0 9 0;
#X connect 5 0 6 0;
#X connect 6 0 4 0;
#X connect 7 0 9 1;
#X connect 8 0 7 0;
#X connect 8 0 10 0;
#X connect 9 0 0 0;
#X connect 10 0 5 0;
#X connect 11 0 5 0;
#X connect 14 0 2 0;
#X connect 15 0 3 0;
#X restore 73 75 pd metronome;
#X obj 450 111 tgl 15 0 empty empty empty 17 7 0 10 -262144 -1 -1 1
1;
#X obj 280 53 r beat-clock;
#X obj 432 47 bng 15 250 50 0 empty empty empty 17 7 0 10 -262144 -1
-1;
#X obj 440 69 bng 15 250 50 0 empty empty empty 17 7 0 10 -262144 -1
-1;
#X obj 442 91 bng 15 250 50 0 empty empty empty 17 7 0 10 -262144 -1
-1;
#X text 462 70 start;
#X text 455 47 stop;
#X text 466 92 start on next beat;
#X text 474 112 loop;
#X floatatom 67 43 5 0 0 0 - - -, f 5;
#X obj 187 605 -;
#X floatatom 188 640 50 0 0 0 - - -, f 50;
#X msg 118 41 0;
#X obj 69 104 s beat-clock;
#X obj 870 235 text define -k seq-1;
#A set 0 length 17.9333 \; 1 note 72 100 \; 1.34167 note 72 0 \; 1.49167
note 74 100 \; 1.775 note 74 0 \; 2 note 76 100 \; 2.275 note 76 0
\; 2.51667 note 72 100 \; 2.75833 note 72 0 \; 3.01667 note 72 100
\; 3.275 note 72 0 \; 3.48333 note 74 100 \; 3.74167 note 74 0 \; 4
note 76 100 \; 4.25 note 76 0 \; 4.51667 note 72 100 \; 4.725 note
72 0 \; 5.01667 note 76 100 \; 5.3 note 76 0 \; 5.50833 note 77 100
\; 5.775 note 77 0 \; 6.00833 note 79 100 \; 6.51667 note 79 0 \; 6.96667
note 76 100 \; 7.225 note 76 0 \; 7.50833 note 77 100 \; 7.74167 note
77 0 \; 8.025 note 79 100 \; 8.41667 note 79 0 \; 8.96667 note 79 100
\; 9.18333 note 81 100 \; 9.19167 note 79 0 \; 9.44167 note 79 100
\; 9.48333 note 81 0 \; 9.7 note 77 100 \; 9.725 note 79 0 \; 10.0083
note 76 100 \; 10.0333 note 77 0 \; 10.425 note 76 0 \; 10.475 note
72 100 \; 10.7167 note 72 0 \; 11 note 79 100 \; 11.175 note 79 0 \;
11.2417 note 81 100 \; 11.4583 note 79 100 \; 11.5 note 81 0 \; 11.7083
note 79 0 \; 11.75 note 77 100 \; 12 note 77 0 \; 12.0083 note 77 100
\; 12.0083 note 76 100 \; 12.0083 note 77 0 \; 12.4583 note 76 0 \;
12.4833 note 72 100 \; 12.7083 note 72 0 \; 13.075 note 72 100 \; 13.4917
note 67 100 \; 13.5167 note 72 0 \; 14.0167 note 67 0 \; 14.0167 note
72 100 \; 14.5833 note 72 0 \; 15.0167 note 72 100 \; 15.4917 note
72 0 \; 15.5 note 67 100 \; 15.9917 note 72 100 \; 16.025 note 67 0
\; 16.5083 note 72 0 \;;
#X msg 870 208 clear;
#X obj 932 24 r notes;
#N canvas 7 50 450 300 prepend-event-name 0;
#X obj 103 169 list append;
#X obj 145 61 t b a;
#X msg 121 116 note;
#X obj 151 20 inlet;
#X obj 130 224 outlet;
#X connect 0 0 4 0;
#X connect 1 0 2 0;
#X connect 1 1 0 1;
#X connect 2 0 0 0;
#X connect 3 0 1 0;
#X restore 918 83 pd prepend-event-name;
#X obj 751 179 seq-recorder seq-1;
#X obj 672 111 r beat-clock;
#X obj 795 133 bng 15 250 50 0 empty empty empty 17 7 0 10 -262144
-1 -1;
#X obj 895 146 bng 15 250 50 0 empty empty empty 17 7 0 10 -262144
-1 -1;
#X text 817 132 stop;
#X text 916 146 arm;
#X floatatom 754 224 5 0 0 0 - - -, f 5;
#N canvas 9 50 1435 812 sounds 0;
#X obj 499 619 bng 15 250 50 0 empty empty empty 17 7 0 10 -262144
-1 -1;
#X obj 499 673 bng 15 250 50 0 empty empty empty 17 7 0 10 -262144
-1 -1;
#X obj 777 662 catch~ samp_voice_out;
#X obj 953 219 i;
#X obj 73 511 loadbang;
#X obj 499 642 sampler-voice metro1.wav 0;
#X floatatom 490 550 5 0 0 0 - - -, f 5;
#X obj 490 487 f 0;
#X obj 502 443 bng 15 250 50 0 empty empty empty 17 7 0 10 -262144
-1 -1;
#X obj 414 612 sel 0;
#X text 630 623 on click;
#X text 621 675 on accent;
#X obj 502 416 t b b;
#X obj 525 486 + 1;
#X floatatom 587 482 5 0 0 0 - - -, f 5;
#X msg 405 431 0, f 4;
#X obj 490 520 % 4;
#X obj 953 166 r knob3;
#X obj 1106 220 i;
#X obj 184 54 r aux;
#X obj 747 228 i;
#X obj 747 175 r knob2;
#X obj 770 722 throw~ outL;
#X obj 879 719 throw~ outR;
#X msg 807 405 2: Accent \$1;
#X obj 807 430 s screenLine2;
#X obj 1106 169 r knob4;
#X obj 1106 292 s screenLine4;
#X msg 953 267 3: Metro Tone \$1;
#X obj 953 191 * 100;
#X obj 1106 194 * 100;
#X msg 1106 270 4: Synth Tone \$1;
#X obj 747 200 * 11;
#X obj 712 283 expr if($f1 <= 1 \, 0 \, $f1);
#X obj 713 313 sel 0;
#X obj 689 434 s screenLine2;
#X msg 689 409 2: Accent Off;
#X msg 634 361 1e+07;
#X text 703 363 not really off \, just really long hahah;
#X msg 300 761 0;
#X obj 318 797 s led;
#X obj 348 702 t b b;
#X msg 479 753 3;
#X msg 408 768 0;
#X obj 426 804 s led;
#X obj 456 709 t b b;
#X msg 371 746 7;
#X msg 33 252 0;
#X obj 33 280 s led;
#X obj 33 198 sel 0;
#X obj 33 220 delay 200;
#X obj 300 739 delay 50;
#X obj 408 746 delay 50;
#X obj 499 696 sampler-voice metro2.wav 6;
#X msg 73 542 \; screenLine1 1: Tempo \; screenLine2 2: Accent 4 \;
screenLine3 3: Metro Tone \; screenLine4 4: Synth Tone \; screenLine5
Aux: Start / Stop \;;
#X obj 747 250 change -1;
#X obj 953 241 change -1;
#X obj 1106 244 change -1;
#X obj 953 289 s screenLine3;
#X obj 293 103 r knob1;
#X obj 293 125 * 250;
#X obj 293 151 + 10;
#X obj 184 139 t f b;
#X obj 184 111 tgl 15 0 empty empty empty 17 7 0 10 -262144 -1 -1 1
1;
#X obj 184 84 sel 1;
#X text 408 45 a MIDI enabled metronome with simple synth for tuning
up;
#X text 688 153 knob 2 selects beat accent;
#X text 383 327 reset counter on midi start;
#X obj 466 171 <;
#X obj 466 197 sel 1;
#X obj 469 136 t f f;
#X text 509 179 bang on next rollover \, top of beat;
#X obj 458 102 r beat-clock;
#X obj 153 337 i;
#X obj 153 359 change -1;
#X msg 153 383 \; screenLine1 1: Tempo \$1 BPM LINK \;;
#X connect 0 0 5 0;
#X connect 1 0 53 0;
#X connect 2 0 22 0;
#X connect 2 0 23 0;
#X connect 3 0 56 0;
#X connect 4 0 54 0;
#X connect 6 0 0 0;
#X connect 6 0 9 0;
#X connect 7 0 13 0;
#X connect 7 0 16 0;
#X connect 8 0 7 0;
#X connect 9 0 41 0;
#X connect 9 1 45 0;
#X connect 12 0 8 0;
#X connect 13 0 7 1;
#X connect 14 0 16 1;
#X connect 15 0 7 1;
#X connect 16 0 6 0;
#X connect 17 0 29 0;
#X connect 18 0 57 0;
#X connect 19 0 64 0;
#X connect 20 0 55 0;
#X connect 21 0 32 0;
#X connect 24 0 25 0;
#X connect 26 0 30 0;
#X connect 28 0 58 0;
#X connect 29 0 3 0;
#X connect 30 0 18 0;
#X connect 31 0 27 0;
#X connect 32 0 20 0;
#X connect 33 0 34 0;
#X connect 34 0 36 0;
#X connect 34 0 37 0;
#X connect 34 1 14 0;
#X connect 34 1 24 0;
#X connect 36 0 35 0;
#X connect 37 0 14 0;
#X connect 39 0 40 0;
#X connect 41 0 51 0;
#X connect 41 1 46 0;
#X connect 42 0 44 0;
#X connect 43 0 44 0;
#X connect 45 0 52 0;
#X connect 45 1 42 0;
#X connect 46 0 40 0;
#X connect 47 0 48 0;
#X connect 49 0 50 0;
#X connect 50 0 47 0;
#X connect 51 0 39 0;
#X connect 52 0 43 0;
#X connect 55 0 33 0;
#X connect 56 0 28 0;
#X connect 57 0 31 0;
#X connect 59 0 60 0;
#X connect 60 0 61 0;
#X connect 62 1 15 0;
#X connect 63 0 62 0;
#X connect 63 0 49 0;
#X connect 64 0 63 0;
#X connect 68 0 69 0;
#X connect 69 0 12 0;
#X connect 70 0 68 1;
#X connect 70 1 68 0;
#X connect 72 0 70 0;
#X connect 73 0 74 0;
#X connect 74 0 75 0;
#X restore 71 140 pd sounds;
#X obj 525 567 throw~ outL;
#X obj 636 567 throw~ outR;
#X obj 611 351 r notes;
#X obj 561 436 pack 0 0 0, f 11;
#X msg 163 41 100;
#X obj 561 461 route 1 2 3 4, f 15;
#X obj 560 408 poly 4 1, f 11;
#X obj 383 298 bag;
#X msg 402 265 flush;
#X msg 375 323 \$1 0;
#X obj 77 206 r knob1;
#X obj 92 228 r knob2;
#X obj 111 249 r knob3;
#X obj 130 275 r knob4;
#X obj 73 307 print;
#X obj 351 349 s seq-notes;
#X obj 351 267 t a a;
#X obj 513 347 r seq-notes;
#X obj 348 165 seq-player seq-1;
#X obj 561 488 voice;
#X obj 859 15 r knob4;
#X obj 613 490 voice;
#X obj 656 491 voice;
#X obj 707 491 voice;
#N canvas 7 50 450 300 prepend-event-name 0;
#X obj 103 169 list append;
#X obj 145 61 t b a;
#X obj 151 20 inlet;
#X obj 130 224 outlet;
#X msg 121 116 knob4;
#X connect 0 0 3 0;
#X connect 1 0 4 0;
#X connect 1 1 0 1;
#X connect 2 0 1 0;
#X connect 4 0 0 0;
#X restore 863 54 pd prepend-event-name;
#X obj 371 226 route note knob4;
#X obj 1086 110 r knob4;
#X obj 1130 210 s tone;
#X obj 491 279 s seq-knob4;
#X obj 1153 111 r seq-knob4;
#X obj 472 132 tgl 15 0 empty empty empty 17 7 0 10 -262144 -1 -1 1
1;
#X text 496 133 quantize;
#X msg 958 440 /oled/gFlip 3;
#X obj 867 725 s oscOut;
#X msg 1155 400 /oled/gClear 3 1;
#X msg 1081 433 /oled/gLine 3 0 0 127 0 1;
#X msg 1081 460 /oled/gLine 3 0 12 127 12 1;
#X msg 1081 485 /oled/gLine 3 0 24 127 24 1;
#X msg 1081 509 /oled/gLine 3 0 36 127 36 1;
#X msg 1081 534 /oled/gLine 3 0 48 127 48 1;
#X msg 1081 557 /oled/gLine 3 0 60 127 60 1;
#X msg 1082 595 /oled/gLine 3 0 0 0 60 1;
#X msg 1082 620 /oled/gLine 3 62 0 62 60 1;
#X msg 1082 643 /oled/gLine 3 127 0 127 60 1;
#X obj 1103 355 t b b b;
#X msg 820 429 /oled/gFlip 3;
#X msg 891 402 /oled/gClear 3 1;
#X obj 839 357 t b b;
#X obj 1012 285 r aux;
#X obj 1012 307 sel 0 1;
#X connect 0 0 4 0;
#X connect 1 0 2 0;
#X connect 2 0 16 1;
#X connect 4 0 16 0;
#X connect 5 0 19 0;
#X connect 6 0 50 4;
#X connect 7 0 50 0;
#X connect 8 0 50 1;
#X connect 9 0 50 2;
#X connect 10 0 50 3;
#X connect 15 0 5 0;
#X connect 16 0 17 0;
#X connect 18 0 5 0;
#X connect 21 0 20 0;
#X connect 22 0 23 0;
#X connect 23 0 24 2;
#X connect 24 0 30 0;
#X connect 24 1 21 0;
#X connect 25 0 24 0;
#X connect 26 0 24 1;
#X connect 27 0 24 3;
#X connect 34 0 38 0;
#X connect 35 0 37 0;
#X connect 36 0 5 0;
#X connect 37 0 51 0;
#X connect 37 1 53 0;
#X connect 37 2 54 0;
#X connect 37 3 55 0;
#X connect 38 0 35 0;
#X connect 38 1 35 1;
#X connect 38 2 35 2;
#X connect 39 0 41 0;
#X connect 40 0 39 0;
#X connect 41 0 47 0;
#X connect 42 0 46 0;
#X connect 43 0 46 0;
#X connect 44 0 46 0;
#X connect 45 0 46 0;
#X connect 48 0 47 0;
#X connect 48 1 39 0;
#X connect 49 0 38 0;
#X connect 50 0 1 0;
#X connect 50 1 57 0;
#X connect 50 2 40 0;
#X connect 50 3 3 0;
#X connect 51 0 32 0;
#X connect 51 0 33 0;
#X connect 52 0 56 0;
#X connect 53 0 32 0;
#X connect 53 0 33 0;
#X connect 54 0 32 0;
#X connect 54 0 33 0;
#X connect 55 0 33 0;
#X connect 55 0 32 0;
#X connect 56 0 24 2;
#X connect 57 0 48 0;
#X connect 57 1 60 0;
#X connect 58 0 59 0;
#X connect 61 0 59 0;
#X connect 62 0 50 5;
#X connect 64 0 65 0;
#X connect 66 0 65 0;
#X connect 67 0 65 0;
#X connect 68 0 65 0;
#X connect 69 0 65 0;
#X connect 70 0 65 0;
#X connect 71 0 65 0;
#X connect 72 0 65 0;
#X connect 73 0 65 0;
#X connect 74 0 65 0;
#X connect 75 0 65 0;
#X connect 76 0 64 0;
#X connect 76 1 67 0;
#X connect 76 1 68 0;
#X connect 76 1 69 0;
#X connect 76 1 70 0;
#X connect 76 1 71 0;
#X connect 76 1 72 0;
#X connect 76 1 73 0;
#X connect 76 1 74 0;
#X connect 76 1 75 0;
#X connect 76 2 66 0;
#X connect 77 0 65 0;
#X connect 78 0 65 0;
#X connect 79 0 77 0;
#X connect 79 1 78 0;
#X connect 80 0 81 0;
#X connect 81 0 79 0;
#X connect 81 1 76 0;
