#N canvas 194 155 1613 832 10;
#X obj 163 427 vsl 15 128 0 1 0 0 empty empty empty 0 -9 0 10 -262144
-1 -1 0 1;
#X obj 260 419 vsl 15 128 1 20 0 0 empty empty empty 0 -9 0 10 -262144
-1 -1 0 1;
#X floatatom 260 568 5 0 0 0 - - -, f 5;
#X floatatom 458 198 5 0 0 0 - - -, f 5;
#X floatatom 163 572 5 0 0 0 - - -, f 5;
#N canvas 383 90 415 596 metronome 0;
#X obj 68 226 snapshot~;
#X obj 94 191 bang~;
#X obj 81 274 i;
#X obj 68 323 change;
#X floatatom 68 130 5 0 0 0 - - -, f 5;
#X floatatom 63 71 5 0 350 0 - - -, f 5;
#X obj 64 100 / 60;
#X msg 132 61 0;
#X obj 117 20 loadbang;
#X obj 68 158 phasor~ 1;
#X msg 93 50 60;
#X obj 48 19 inlet;
#X obj 65 378 outlet;
#X text 124 279 divide clock into steps;
#X obj 81 252 * 120;
#X obj 81 296 / 120;
#X connect 0 0 14 0;
#X connect 1 0 0 0;
#X connect 2 0 15 0;
#X connect 3 0 12 0;
#X connect 4 0 9 0;
#X connect 5 0 6 0;
#X connect 6 0 4 0;
#X connect 7 0 9 1;
#X connect 8 0 7 0;
#X connect 8 0 10 0;
#X connect 9 0 0 0;
#X connect 10 0 5 0;
#X connect 11 0 5 0;
#X connect 14 0 2 0;
#X connect 15 0 3 0;
#X restore 73 75 pd metronome;
#X obj 450 111 tgl 15 0 empty empty empty 17 7 0 10 -262144 -1 -1 0
1;
#X obj 280 53 r beat-clock;
#X obj 432 47 bng 15 250 50 0 empty empty empty 17 7 0 10 -262144 -1
-1;
#X obj 440 69 bng 15 250 50 0 empty empty empty 17 7 0 10 -262144 -1
-1;
#X obj 442 91 bng 15 250 50 0 empty empty empty 17 7 0 10 -262144 -1
-1;
#X text 462 70 start;
#X text 455 47 stop;
#X text 466 92 start on next beat;
#X text 474 112 loop;
#X floatatom 67 43 5 0 0 0 - - -, f 5;
#X obj 187 605 -;
#X floatatom 188 640 50 0 0 0 - - -, f 50;
#X msg 118 41 0;
#X obj 69 104 s beat-clock;
#X obj 870 235 text define -k seq-1;
#A set 0 length 17.9333 \; 1 note 72 100 \; 1.34167 note 72 0 \; 1.49167
note 74 100 \; 1.775 note 74 0 \; 2 note 76 100 \; 2.275 note 76 0
\; 2.51667 note 72 100 \; 2.75833 note 72 0 \; 3.01667 note 72 100
\; 3.275 note 72 0 \; 3.48333 note 74 100 \; 3.74167 note 74 0 \; 4
note 76 100 \; 4.25 note 76 0 \; 4.51667 note 72 100 \; 4.725 note
72 0 \; 5.01667 note 76 100 \; 5.3 note 76 0 \; 5.50833 note 77 100
\; 5.775 note 77 0 \; 6.00833 note 79 100 \; 6.51667 note 79 0 \; 6.96667
note 76 100 \; 7.225 note 76 0 \; 7.50833 note 77 100 \; 7.74167 note
77 0 \; 8.025 note 79 100 \; 8.41667 note 79 0 \; 8.96667 note 79 100
\; 9.18333 note 81 100 \; 9.19167 note 79 0 \; 9.44167 note 79 100
\; 9.48333 note 81 0 \; 9.7 note 77 100 \; 9.725 note 79 0 \; 10.0083
note 76 100 \; 10.0333 note 77 0 \; 10.425 note 76 0 \; 10.475 note
72 100 \; 10.7167 note 72 0 \; 11 note 79 100 \; 11.175 note 79 0 \;
11.2417 note 81 100 \; 11.4583 note 79 100 \; 11.5 note 81 0 \; 11.7083
note 79 0 \; 11.75 note 77 100 \; 12 note 77 0 \; 12.0083 note 77 100
\; 12.0083 note 76 100 \; 12.0083 note 77 0 \; 12.4583 note 76 0 \;
12.4833 note 72 100 \; 12.7083 note 72 0 \; 13.075 note 72 100 \; 13.4917
note 67 100 \; 13.5167 note 72 0 \; 14.0167 note 67 0 \; 14.0167 note
72 100 \; 14.5833 note 72 0 \; 15.0167 note 72 100 \; 15.4917 note
72 0 \; 15.5 note 67 100 \; 15.9917 note 72 100 \; 16.025 note 67 0
\; 16.5083 note 72 0 \;;
#X msg 870 208 clear;
#X obj 918 54 r notes;
#N canvas 7 50 450 300 prepend-event-name 0;
#X obj 103 169 list append;
#X obj 145 61 t b a;
#X msg 121 116 note;
#X obj 151 20 inlet;
#X obj 130 224 outlet;
#X connect 0 0 4 0;
#X connect 1 0 2 0;
#X connect 1 1 0 1;
#X connect 2 0 0 0;
#X connect 3 0 1 0;
#X restore 918 83 pd prepend-event-name;
#X obj 751 179 seq-recorder seq-1;
#X obj 746 105 r beat-clock;
#X obj 795 133 bng 15 250 50 0 empty empty empty 17 7 0 10 -262144
-1 -1;
#X obj 895 146 bng 15 250 50 0 empty empty empty 17 7 0 10 -262144
-1 -1;
#X text 817 132 stop;
#X text 916 146 arm;
#X floatatom 754 224 5 0 0 0 - - -, f 5;
#N canvas 11 50 1435 812 sounds 0;
#X obj 499 619 bng 15 250 50 0 empty empty empty 17 7 0 10 -262144
-1 -1;
#X obj 499 673 bng 15 250 50 0 empty empty empty 17 7 0 10 -262144
-1 -1;
#X obj 777 662 catch~ samp_voice_out;
#X obj 953 219 i;
#X obj 73 511 loadbang;
#X obj 499 642 sampler-voice metro1.wav 0;
#X floatatom 490 550 5 0 0 0 - - -, f 5;
#X obj 490 487 f 0;
#X obj 502 443 bng 15 250 50 0 empty empty empty 17 7 0 10 -262144
-1 -1;
#X obj 414 612 sel 0;
#X text 630 623 on click;
#X text 621 675 on accent;
#X obj 502 416 t b b;
#X obj 525 486 + 1;
#X floatatom 587 482 5 0 0 0 - - -, f 5;
#X msg 405 431 0, f 4;
#X obj 490 520 % 4;
#X obj 953 166 r knob3;
#X obj 1106 220 i;
#X obj 184 54 r aux;
#X obj 747 228 i;
#X obj 747 175 r knob2;
#X obj 770 722 throw~ outL;
#X obj 879 719 throw~ outR;
#X msg 807 405 2: Accent \$1;
#X obj 807 430 s screenLine2;
#X obj 1106 169 r knob4;
#X obj 1106 292 s screenLine4;
#X msg 953 267 3: Metro Tone \$1;
#X obj 953 191 * 100;
#X obj 1106 194 * 100;
#X msg 1106 270 4: Synth Tone \$1;
#X obj 747 200 * 11;
#X obj 712 283 expr if($f1 <= 1 \, 0 \, $f1);
#X obj 713 313 sel 0;
#X obj 689 434 s screenLine2;
#X msg 689 409 2: Accent Off;
#X msg 634 361 1e+07;
#X text 703 363 not really off \, just really long hahah;
#X msg 300 761 0;
#X obj 318 797 s led;
#X obj 348 702 t b b;
#X msg 479 753 3;
#X msg 408 768 0;
#X obj 426 804 s led;
#X obj 456 709 t b b;
#X msg 371 746 7;
#X msg 33 252 0;
#X obj 33 280 s led;
#X obj 33 198 sel 0;
#X obj 33 220 delay 200;
#X obj 300 739 delay 50;
#X obj 408 746 delay 50;
#X obj 499 696 sampler-voice metro2.wav 6;
#X msg 73 542 \; screenLine1 1: Tempo \; screenLine2 2: Accent 4 \;
screenLine3 3: Metro Tone \; screenLine4 4: Synth Tone \; screenLine5
Aux: Start / Stop \;;
#X obj 747 250 change -1;
#X obj 953 241 change -1;
#X obj 1106 244 change -1;
#X obj 953 289 s screenLine3;
#X obj 293 103 r knob1;
#X obj 293 125 * 250;
#X obj 293 151 + 10;
#X obj 184 139 t f b;
#X obj 184 111 tgl 15 0 empty empty empty 17 7 0 10 -262144 -1 -1 0
1;
#X obj 184 84 sel 1;
#X text 408 45 a MIDI enabled metronome with simple synth for tuning
up;
#X text 688 153 knob 2 selects beat accent;
#X text 383 327 reset counter on midi start;
#X obj 466 171 <;
#X obj 466 197 sel 1;
#X obj 469 136 t f f;
#X text 509 179 bang on next rollover \, top of beat;
#X obj 458 102 r beat-clock;
#X obj 153 337 i;
#X obj 153 359 change -1;
#X msg 153 383 \; screenLine1 1: Tempo \$1 BPM LINK \;;
#X connect 0 0 5 0;
#X connect 1 0 53 0;
#X connect 2 0 22 0;
#X connect 2 0 23 0;
#X connect 3 0 56 0;
#X connect 4 0 54 0;
#X connect 6 0 0 0;
#X connect 6 0 9 0;
#X connect 7 0 13 0;
#X connect 7 0 16 0;
#X connect 8 0 7 0;
#X connect 9 0 41 0;
#X connect 9 1 45 0;
#X connect 12 0 8 0;
#X connect 13 0 7 1;
#X connect 14 0 16 1;
#X connect 15 0 7 1;
#X connect 16 0 6 0;
#X connect 17 0 29 0;
#X connect 18 0 57 0;
#X connect 19 0 64 0;
#X connect 20 0 55 0;
#X connect 21 0 32 0;
#X connect 24 0 25 0;
#X connect 26 0 30 0;
#X connect 28 0 58 0;
#X connect 29 0 3 0;
#X connect 30 0 18 0;
#X connect 31 0 27 0;
#X connect 32 0 20 0;
#X connect 33 0 34 0;
#X connect 34 0 36 0;
#X connect 34 0 37 0;
#X connect 34 1 14 0;
#X connect 34 1 24 0;
#X connect 36 0 35 0;
#X connect 37 0 14 0;
#X connect 39 0 40 0;
#X connect 41 0 51 0;
#X connect 41 1 46 0;
#X connect 42 0 44 0;
#X connect 43 0 44 0;
#X connect 45 0 52 0;
#X connect 45 1 42 0;
#X connect 46 0 40 0;
#X connect 47 0 48 0;
#X connect 49 0 50 0;
#X connect 50 0 47 0;
#X connect 51 0 39 0;
#X connect 52 0 43 0;
#X connect 55 0 33 0;
#X connect 56 0 28 0;
#X connect 57 0 31 0;
#X connect 59 0 60 0;
#X connect 60 0 61 0;
#X connect 62 1 15 0;
#X connect 63 0 62 0;
#X connect 63 0 49 0;
#X connect 64 0 63 0;
#X connect 68 0 69 0;
#X connect 69 0 12 0;
#X connect 70 0 68 1;
#X connect 70 1 68 0;
#X connect 72 0 70 0;
#X connect 73 0 74 0;
#X connect 74 0 75 0;
#X restore 71 140 pd sounds;
#X obj 573 715 throw~ outL;
#X obj 684 715 throw~ outR;
#X obj 759 295 r notes;
#X obj 609 584 pack 0 0 0, f 11;
#X msg 163 41 100;
#X obj 609 609 route 1 2 3 4, f 15;
#X obj 608 556 poly 4 1, f 11;
#X obj 383 298 bag;
#X msg 438 260 flush;
#X msg 375 323 \$1 0;
#X obj 77 206 r knob1;
#X obj 92 228 r knob2;
#X obj 111 249 r knob3;
#X obj 130 275 r knob4;
#X obj 73 307 print;
#X obj 351 349 s seq-notes;
#X obj 351 267 t a a;
#X obj 561 495 r seq-notes;
#X obj 348 165 seq-player seq-1;
#X obj 609 636 voice;
#X obj 661 638 voice;
#X obj 704 639 voice;
#X obj 755 639 voice;
#X obj 1130 176 r knob4;
#X obj 1130 210 s tone;
#X obj 472 132 tgl 15 0 empty empty empty 17 7 0 10 -262144 -1 -1 0
1;
#X text 496 133 quantize;
#X obj 351 235 route note;
#X obj 771 329 unpack 0 0;
#X obj 771 389 pack 0 0 0;
#N canvas 0 50 450 278 (subpatch) 0;
#X array notes-from-poly 8 float 2;
#X coords 0 127 8 0 200 140 1 0 0;
#X restore 1346 100 graph;
#X obj 771 470 unpack;
#N canvas 0 50 450 278 (subpatch) 0;
#X array notes-squashed 8 float 3;
#A 0 0 0 0 0 0 0 0 0;
#X coords 0 127 8 0 200 140 1 0 0;
#X restore 1345 282 graph;
#N canvas 0 50 450 278 (subpatch) 0;
#X array notes-increasing 8 float 3;
#A 0 62 0 0 0 0 0 0 0;
#X coords 0 127 8 0 200 140 1 0 0;
#X restore 1348 658 graph;
#X obj 799 580 s reorder;
#N canvas 133 50 826 891 array-sort 0;
#X obj 263 111 until;
#X obj 263 153 f;
#X obj 296 154 + 1, f 4;
#X msg 321 91 0, f 2;
#X obj 296 21 bng 15 250 50 0 empty empty empty 17 7 0 10 -262144 -1
-1;
#X obj 312 267 f;
#X obj 264 232 t f b;
#X obj 262 182 t f f;
#X obj 249 452 f;
#X floatatom 240 515 5 0 0 0 - - -, f 5;
#X obj 306 399 sel 1;
#X obj 214 485 f;
#X obj 173 537 f;
#X obj 213 553 t b b;
#X obj 323 560 t b f;
#X obj 250 580 f;
#X obj 343 -90 until;
#X obj 344 -46 f;
#X obj 376 -47 + 1, f 4;
#X msg 401 -110 0, f 2;
#X obj 345 -139 t b b;
#X obj 329 -11 t b f;
#X obj 214 -206 r reorder;
#X obj 252 48 t b b b b;
#X msg 314 585 0, f 2;
#X msg 357 89 0;
#X obj 217 333 expr if ($f1 > $f2 \, $f1 \, $f2) \; if ($f1 > $f2 \,
1 \, 0);
#X msg 344 -115 8, f 2;
#X msg 263 83 8, f 2;
#X obj 170 -206 bng 15 250 50 0 empty empty empty 17 7 0 10 -262144
-1 -1;
#X obj 264 210 tabread notes-squashed;
#X obj 314 621 tabwrite notes-squashed;
#X obj 139 648 tabwrite notes-decreasing;
#X text 419 137 sort array a into b. a gets clobbered in the process
probably a much better way to do this ...;
#X obj 204 -173 t b b b;
#X connect 0 0 1 0;
#X connect 1 0 2 0;
#X connect 1 0 7 0;
#X connect 2 0 1 1;
#X connect 3 0 1 1;
#X connect 4 0 23 0;
#X connect 5 0 26 1;
#X connect 6 0 26 0;
#X connect 6 1 5 0;
#X connect 7 0 30 0;
#X connect 7 1 8 1;
#X connect 8 0 11 1;
#X connect 9 0 14 0;
#X connect 10 0 8 0;
#X connect 11 0 9 0;
#X connect 11 0 13 0;
#X connect 12 0 32 0;
#X connect 13 0 12 0;
#X connect 13 1 15 0;
#X connect 14 0 24 0;
#X connect 14 1 31 1;
#X connect 15 0 32 1;
#X connect 16 0 17 0;
#X connect 17 0 18 0;
#X connect 17 0 21 0;
#X connect 18 0 17 1;
#X connect 19 0 17 1;
#X connect 20 0 27 0;
#X connect 20 1 19 0;
#X connect 21 0 4 0;
#X connect 21 1 15 1;
#X connect 22 0 34 0;
#X connect 23 0 11 0;
#X connect 23 1 28 0;
#X connect 23 2 3 0;
#X connect 23 3 25 0;
#X connect 24 0 31 0;
#X connect 25 0 5 1;
#X connect 26 0 5 1;
#X connect 26 0 12 1;
#X connect 26 1 10 0;
#X connect 27 0 16 0;
#X connect 28 0 0 0;
#X connect 29 0 34 0;
#X connect 30 0 6 0;
#X connect 34 2 20 0;
#X restore 1227 516 pd array-sort;
#N canvas 0 50 450 278 (subpatch) 0;
#X array notes-decreasing 8 float 2;
#X coords 0 127 8 0 200 140 1 0 0;
#X restore 1346 475 graph;
#N canvas 167 50 726 731 increasing 0;
#X obj 156 260 until;
#X obj 157 304 f;
#X obj 189 303 + 1, f 4;
#X msg 214 240 0, f 2;
#X obj 155 236 f 0;
#X obj 156 357 - 0;
#X obj 157 408 abs;
#X obj 157 326 t f f;
#X obj 266 471 f;
#X obj 156 469 t f b;
#X obj 320 197 r num-down;
#X obj 156 379 + 1;
#X obj 416 331 until;
#X obj 416 373 f;
#X obj 449 374 + 1, f 4;
#X msg 474 311 0, f 2;
#X obj 416 276 t b b;
#X obj 424 398 t b f;
#X msg 415 423 0, f 2;
#X msg 416 303 8, f 2;
#X obj 155 197 t b b b;
#X obj 156 437 tabread notes-decreasing;
#X obj 152 508 tabwrite notes-increasing;
#X obj 413 448 tabwrite notes-increasing;
#X obj 153 67 inlet;
#X connect 0 0 1 0;
#X connect 1 0 2 0;
#X connect 1 0 7 0;
#X connect 2 0 1 1;
#X connect 3 0 1 1;
#X connect 4 0 0 0;
#X connect 5 0 11 0;
#X connect 6 0 21 0;
#X connect 7 0 5 0;
#X connect 7 1 8 1;
#X connect 8 0 22 1;
#X connect 9 0 22 0;
#X connect 9 1 8 0;
#X connect 10 0 4 1;
#X connect 10 0 5 1;
#X connect 11 0 6 0;
#X connect 12 0 13 0;
#X connect 13 0 14 0;
#X connect 13 0 17 0;
#X connect 14 0 13 1;
#X connect 15 0 13 1;
#X connect 16 0 19 0;
#X connect 16 1 15 0;
#X connect 17 0 18 0;
#X connect 17 1 23 1;
#X connect 18 0 23 0;
#X connect 19 0 12 0;
#X connect 20 0 4 0;
#X connect 20 1 3 0;
#X connect 20 2 16 0;
#X connect 21 0 9 0;
#X connect 24 0 20 0;
#X restore 1231 722 pd increasing;
#X obj 771 354 poly 8 1, f 10;
#X obj 732 580 s others;
#N canvas 9 50 588 574 format_for_array 0;
#X obj 111 44 inlet;
#X obj 102 128 f;
#X obj 144 151 sel 0;
#X msg 121 188 0;
#X obj 167 181 t b b;
#X obj 137 126 f;
#X obj 79 268 t f b;
#X obj 75 336 pack 0 0;
#X obj 85 75 unpack 0 0 0;
#X obj 41 132 t b f;
#X obj 117 304 f;
#X obj 78 389 outlet;
#X obj 133 274 - 1;
#X text 169 280 array index starts at 0 \, poly index starts at 1;
#X text 223 150 if the velocity is > 0 \, outputs note number. If =
0 \, it outputs 0 for note number;
#X connect 0 0 8 0;
#X connect 1 0 6 0;
#X connect 2 0 3 0;
#X connect 2 1 4 0;
#X connect 3 0 6 0;
#X connect 4 0 1 0;
#X connect 5 0 2 0;
#X connect 6 0 7 0;
#X connect 6 1 10 0;
#X connect 7 0 11 0;
#X connect 8 0 9 0;
#X connect 8 1 1 1;
#X connect 8 2 5 1;
#X connect 9 0 5 0;
#X connect 9 1 12 0;
#X connect 10 0 7 1;
#X connect 12 0 10 1;
#X restore 771 418 pd format_for_array;
#N canvas 7 50 1000 647 array-copy 0;
#X obj 228 194 until;
#X obj 228 236 f;
#X obj 261 237 + 1, f 4;
#X msg 286 174 0, f 2;
#X obj 227 98 bng 15 250 50 0 empty empty empty 17 7 0 10 -262144 -1
-1;
#X obj 406 272 until;
#X obj 406 314 f;
#X obj 439 315 + 1, f 4;
#X msg 464 252 0, f 2;
#X obj 406 217 t b b;
#X obj 414 339 t b f;
#X msg 405 364 0, f 2;
#X obj 227 121 t b b b;
#X msg 228 166 8, f 2;
#X msg 406 244 8, f 2;
#X text 324 97 this removes 0 elements (or actually just moves the
following elements over 1 place);
#X text 508 296 first zero out the destination array;
#X obj 228 258 t f f;
#X obj 227 75 r copy;
#X obj 408 385 tabwrite notes-squashed;
#X obj 229 297 tabread notes-from-poly;
#X obj 247 410 tabwrite notes-squashed;
#X connect 0 0 1 0;
#X connect 1 0 2 0;
#X connect 1 0 17 0;
#X connect 2 0 1 1;
#X connect 3 0 1 1;
#X connect 4 0 12 0;
#X connect 5 0 6 0;
#X connect 6 0 7 0;
#X connect 6 0 10 0;
#X connect 7 0 6 1;
#X connect 8 0 6 1;
#X connect 9 0 14 0;
#X connect 9 1 8 0;
#X connect 10 0 11 0;
#X connect 10 1 19 1;
#X connect 11 0 19 0;
#X connect 12 0 13 0;
#X connect 12 1 3 0;
#X connect 12 2 9 0;
#X connect 13 0 0 0;
#X connect 14 0 5 0;
#X connect 17 0 20 0;
#X connect 17 1 21 1;
#X connect 18 0 4 0;
#X connect 20 0 21 0;
#X restore 1224 340 pd array-copy;
#X obj 874 580 s copy;
#X obj 1006 580 tabwrite notes-from-poly;
#X text 1383 878 then play them!;
#N canvas 454 50 1358 931 arp 0;
#X floatatom 575 267 5 0 0 0 - - -, f 5;
#N canvas 18 50 1242 820 double-double 0;
#X obj 410 225 r num-down;
#X obj 307 345 bng 15 250 50 0 empty empty empty 17 7 0 10 -262144
-1 -1;
#X floatatom 422 282 5 0 0 0 - - -, f 5;
#X obj 420 255 r num-down;
#X floatatom 484 494 5 0 0 0 - - -, f 5;
#X obj 306 623 + 0;
#X obj 485 513 * 12;
#X obj 298 304 spigot;
#X obj 268 79 r sixteenths;
#X obj 234 516 tabread notes-increasing;
#X obj 306 659 - 12;
#X obj 378 338 sel 0;
#X obj 396 437 bng 15 250 50 0 empty empty empty 17 7 0 10 -262144
-1 -1;
#X obj 422 301 t f f;
#X msg 506 462 0;
#X obj 247 467 % 1;
#X obj 255 394 counter-up 0;
#X obj 480 427 counter-up 2;
#X obj 782 179 r num-down;
#X obj 679 299 bng 15 250 50 0 empty empty empty 17 7 0 10 -262144
-1 -1;
#X floatatom 599 447 5 0 0 0 - - -, f 5;
#X floatatom 794 236 5 0 0 0 - - -, f 5;
#X obj 792 209 r num-down;
#X floatatom 856 448 5 0 0 0 - - -, f 5;
#X obj 678 577 + 0;
#X obj 857 467 * 12;
#X obj 670 258 spigot;
#X obj 606 470 tabread notes-increasing;
#X obj 671 636 - 12;
#X obj 750 292 sel 0;
#X obj 768 391 bng 15 250 50 0 empty empty empty 17 7 0 10 -262144
-1 -1;
#X obj 794 255 t f f;
#X msg 878 416 0;
#X obj 619 421 % 1;
#X obj 627 348 counter-up 0;
#X obj 852 385 counter-up 2;
#X obj 624 67 r eighths;
#X obj 487 756 outlet;
#X obj 327 176 spigot 0;
#X obj 592 158 spigot 0;
#X obj 459 91 inlet;
#X connect 0 0 7 1;
#X connect 1 0 16 0;
#X connect 2 0 13 0;
#X connect 3 0 2 0;
#X connect 4 0 6 0;
#X connect 5 0 10 0;
#X connect 6 0 5 1;
#X connect 7 0 1 0;
#X connect 8 0 38 0;
#X connect 9 0 5 0;
#X connect 10 0 37 0;
#X connect 11 0 14 0;
#X connect 11 0 16 1;
#X connect 11 0 17 1;
#X connect 12 0 17 0;
#X connect 13 0 11 0;
#X connect 13 0 15 1;
#X connect 13 1 16 2;
#X connect 14 0 4 0;
#X connect 15 0 9 0;
#X connect 16 0 15 0;
#X connect 16 1 12 0;
#X connect 17 0 4 0;
#X connect 18 0 26 1;
#X connect 19 0 34 0;
#X connect 20 0 27 0;
#X connect 21 0 31 0;
#X connect 22 0 21 0;
#X connect 23 0 25 0;
#X connect 24 0 28 0;
#X connect 25 0 24 1;
#X connect 26 0 19 0;
#X connect 27 0 24 0;
#X connect 28 0 37 0;
#X connect 29 0 32 0;
#X connect 29 0 34 1;
#X connect 29 0 35 1;
#X connect 30 0 35 0;
#X connect 31 0 29 0;
#X connect 31 0 33 1;
#X connect 31 1 34 2;
#X connect 32 0 23 0;
#X connect 33 0 20 0;
#X connect 34 0 33 0;
#X connect 34 1 30 0;
#X connect 35 0 23 0;
#X connect 36 0 39 0;
#X connect 38 0 7 0;
#X connect 39 0 26 0;
#X connect 40 0 38 1;
#X connect 40 0 39 1;
#X restore 907 679 pd double-double;
#N canvas 199 113 800 645 synth 0;
#X obj 229 516 throw~ outL;
#X obj 339 514 throw~ outR;
#X text 344 466 final gain adjustment;
#X obj 198 312 route 1 2 3 4 5 6, f 34;
#X obj 219 66 inlet;
#X obj 219 150 t b a, f 15;
#X obj 321 175 unpack 0 0;
#X obj 321 273 pack 0 0 0;
#X obj 219 209 counter-up 6;
#X obj 219 237 + 1;
#X text 404 176 there are no note offs \, so just go around;
#X obj 219 93 stripnote;
#X obj 219 121 pack 0 0;
#X obj 427 348 voice;
#X obj 596 457 *~ 1;
#X obj 272 348 voice;
#X obj 169 348 voice;
#X obj 323 348 voice;
#X obj 375 348 voice;
#X obj 222 348 voice;
#X obj 563 559 writesf~ 2;
#X msg 631 409 start;
#X msg 576 391 stop;
#X msg 565 309 open -bytes 3 119.wav;
#X connect 3 0 16 0;
#X connect 3 1 19 0;
#X connect 3 2 15 0;
#X connect 3 3 17 0;
#X connect 3 4 18 0;
#X connect 3 5 13 0;
#X connect 4 0 11 0;
#X connect 5 0 8 0;
#X connect 5 1 6 0;
#X connect 6 0 7 1;
#X connect 6 1 7 2;
#X connect 7 0 3 0;
#X connect 8 0 9 0;
#X connect 9 0 7 0;
#X connect 11 0 12 0;
#X connect 11 1 12 1;
#X connect 12 0 5 0;
#X connect 13 0 14 0;
#X connect 14 0 0 0;
#X connect 14 0 1 0;
#X connect 14 0 20 0;
#X connect 14 0 20 1;
#X connect 15 0 14 0;
#X connect 16 0 14 0;
#X connect 17 0 14 0;
#X connect 18 0 14 0;
#X connect 19 0 14 0;
#X connect 21 0 14 0;
#X connect 22 0 14 0;
#X connect 23 0 14 0;
#X restore 509 839 pd synth;
#X obj 577 756 pack 0 100;
#X obj 575 246 hradio 15 1 0 8 empty empty empty 0 -8 0 10 -262144
-1 -1 0;
#X obj 533 326 sel 0 1 2 3 4 5 6 7, f 69;
#X obj 575 287 t f b;
#X msg 607 617 0;
#X msg 530 358 1;
#X msg 601 356 1;
#X msg 663 355 1;
#X msg 721 353 1;
#N canvas 21 50 1242 820 double-randoms 0;
#X obj 410 225 r num-down;
#X obj 307 345 bng 15 250 50 0 empty empty empty 17 7 0 10 -262144
-1 -1;
#X floatatom 422 282 5 0 0 0 - - -, f 5;
#X obj 420 255 r num-down;
#X floatatom 484 494 5 0 0 0 - - -, f 5;
#X obj 306 623 + 0;
#X obj 485 513 * 12;
#X obj 298 304 spigot;
#X obj 268 79 r sixteenths;
#X obj 234 516 tabread notes-increasing;
#X obj 306 659 - 12;
#X obj 378 338 sel 0;
#X obj 396 437 bng 15 250 50 0 empty empty empty 17 7 0 10 -262144
-1 -1;
#X obj 422 301 t f f;
#X msg 506 462 0;
#X obj 247 467 % 1;
#X obj 782 179 r num-down;
#X obj 679 299 bng 15 250 50 0 empty empty empty 17 7 0 10 -262144
-1 -1;
#X floatatom 599 447 5 0 0 0 - - -, f 5;
#X floatatom 794 236 5 0 0 0 - - -, f 5;
#X obj 792 209 r num-down;
#X floatatom 856 448 5 0 0 0 - - -, f 5;
#X obj 678 577 + 0;
#X obj 857 467 * 12;
#X obj 670 258 spigot;
#X obj 606 470 tabread notes-increasing;
#X obj 671 636 - 12;
#X obj 750 292 sel 0;
#X obj 768 391 bng 15 250 50 0 empty empty empty 17 7 0 10 -262144
-1 -1;
#X obj 794 255 t f f;
#X msg 878 416 0;
#X obj 619 421 % 1;
#X obj 627 348 counter-up 0;
#X obj 852 385 counter-up 2;
#X obj 624 67 r eighths;
#X obj 487 756 outlet;
#X obj 327 176 spigot 0;
#X obj 592 158 spigot 0;
#X obj 459 91 inlet;
#X obj 451 425 random 3;
#X obj 255 394 random;
#X connect 0 0 7 1;
#X connect 1 0 40 0;
#X connect 1 0 12 0;
#X connect 2 0 13 0;
#X connect 3 0 2 0;
#X connect 3 0 40 1;
#X connect 4 0 6 0;
#X connect 5 0 10 0;
#X connect 6 0 5 1;
#X connect 7 0 1 0;
#X connect 8 0 36 0;
#X connect 9 0 5 0;
#X connect 10 0 35 0;
#X connect 11 0 14 0;
#X connect 12 0 39 0;
#X connect 13 0 11 0;
#X connect 13 0 15 1;
#X connect 14 0 4 0;
#X connect 15 0 9 0;
#X connect 16 0 24 1;
#X connect 17 0 32 0;
#X connect 18 0 25 0;
#X connect 19 0 29 0;
#X connect 20 0 19 0;
#X connect 21 0 23 0;
#X connect 22 0 26 0;
#X connect 23 0 22 1;
#X connect 24 0 17 0;
#X connect 25 0 22 0;
#X connect 26 0 35 0;
#X connect 27 0 30 0;
#X connect 27 0 32 1;
#X connect 27 0 33 1;
#X connect 28 0 33 0;
#X connect 29 0 27 0;
#X connect 29 0 31 1;
#X connect 29 1 32 2;
#X connect 30 0 21 0;
#X connect 31 0 18 0;
#X connect 32 0 31 0;
#X connect 32 1 28 0;
#X connect 33 0 21 0;
#X connect 34 0 37 0;
#X connect 36 0 7 0;
#X connect 37 0 24 0;
#X connect 38 0 36 1;
#X connect 38 0 37 1;
#X connect 39 0 4 0;
#X connect 40 0 15 0;
#X restore 776 681 pd double-randoms;
#X obj 550 168 i;
#X floatatom 550 212 5 0 0 0 - - -, f 5;
#X obj 642 159 loadbang;
#X msg 642 181 0;
#N canvas 20 50 1242 820 singleup4 0;
#X obj 410 225 r num-down;
#X obj 307 345 bng 15 250 50 0 empty empty empty 17 7 0 10 -262144
-1 -1;
#X floatatom 422 282 5 0 0 0 - - -, f 5;
#X obj 420 255 r num-down;
#X floatatom 484 494 5 0 0 0 - - -, f 5;
#X obj 306 623 + 0;
#X obj 485 513 * 12;
#X obj 298 304 spigot;
#X obj 268 79 r sixteenths;
#X obj 234 516 tabread notes-increasing;
#X obj 378 338 sel 0;
#X obj 396 437 bng 15 250 50 0 empty empty empty 17 7 0 10 -262144
-1 -1;
#X obj 422 301 t f f;
#X msg 506 462 0;
#X obj 247 467 % 1;
#X obj 255 394 counter-up 0;
#X obj 487 756 outlet;
#X obj 327 176 spigot 0;
#X obj 459 91 inlet;
#X obj 480 427 counter-up 4;
#X obj 307 659 - 24;
#X connect 0 0 7 1;
#X connect 1 0 15 0;
#X connect 2 0 12 0;
#X connect 3 0 2 0;
#X connect 4 0 6 0;
#X connect 5 0 20 0;
#X connect 6 0 5 1;
#X connect 7 0 1 0;
#X connect 8 0 17 0;
#X connect 9 0 5 0;
#X connect 10 0 13 0;
#X connect 10 0 15 1;
#X connect 10 0 19 1;
#X connect 11 0 19 0;
#X connect 12 0 10 0;
#X connect 12 0 14 1;
#X connect 12 1 15 2;
#X connect 13 0 4 0;
#X connect 14 0 9 0;
#X connect 15 0 14 0;
#X connect 15 1 11 0;
#X connect 17 0 7 0;
#X connect 18 0 17 1;
#X connect 19 0 4 0;
#X connect 20 0 16 0;
#X restore 560 683 pd singleup4;
#N canvas 17 50 1242 820 singledown4 0;
#X obj 410 225 r num-down;
#X obj 307 345 bng 15 250 50 0 empty empty empty 17 7 0 10 -262144
-1 -1;
#X floatatom 422 282 5 0 0 0 - - -, f 5;
#X obj 420 255 r num-down;
#X floatatom 484 494 5 0 0 0 - - -, f 5;
#X obj 306 623 + 0;
#X obj 485 513 * 12;
#X obj 298 304 spigot;
#X obj 268 79 r sixteenths;
#X obj 234 516 tabread notes-increasing;
#X obj 378 338 sel 0;
#X obj 396 437 bng 15 250 50 0 empty empty empty 17 7 0 10 -262144
-1 -1;
#X obj 422 301 t f f;
#X msg 506 462 0;
#X obj 247 467 % 1;
#X obj 624 67 r eighths;
#X obj 487 756 outlet;
#X obj 327 176 spigot 0;
#X obj 459 91 inlet;
#X obj 307 659 - 24;
#X obj 255 394 counter-down 0;
#X obj 480 427 counter-down 4;
#X connect 0 0 7 1;
#X connect 1 0 20 0;
#X connect 2 0 12 0;
#X connect 3 0 2 0;
#X connect 4 0 6 0;
#X connect 5 0 19 0;
#X connect 6 0 5 1;
#X connect 7 0 1 0;
#X connect 8 0 17 0;
#X connect 9 0 5 0;
#X connect 10 0 13 0;
#X connect 10 0 20 1;
#X connect 10 0 21 1;
#X connect 11 0 21 0;
#X connect 12 0 10 0;
#X connect 12 0 14 1;
#X connect 12 1 20 2;
#X connect 13 0 4 0;
#X connect 14 0 9 0;
#X connect 17 0 7 0;
#X connect 18 0 17 1;
#X connect 19 0 16 0;
#X connect 20 0 14 0;
#X connect 20 1 11 0;
#X connect 21 0 4 0;
#X restore 663 681 pd singledown4;
#X msg 803 355 1;
#X msg 861 355 1;
#X msg 909 355 1;
#X msg 964 355 1;
#N canvas 27 50 1242 820 singleup2 0;
#X obj 410 225 r num-down;
#X obj 307 345 bng 15 250 50 0 empty empty empty 17 7 0 10 -262144
-1 -1;
#X floatatom 422 282 5 0 0 0 - - -, f 5;
#X obj 420 255 r num-down;
#X floatatom 484 494 5 0 0 0 - - -, f 5;
#X obj 306 623 + 0;
#X obj 485 513 * 12;
#X obj 298 304 spigot;
#X obj 268 79 r sixteenths;
#X obj 234 516 tabread notes-increasing;
#X obj 378 338 sel 0;
#X obj 396 437 bng 15 250 50 0 empty empty empty 17 7 0 10 -262144
-1 -1;
#X obj 422 301 t f f;
#X msg 506 462 0;
#X obj 247 467 % 1;
#X obj 255 394 counter-up 0;
#X obj 487 756 outlet;
#X obj 327 176 spigot 0;
#X obj 459 91 inlet;
#X obj 307 659 - 24;
#X obj 480 427 counter-up 2;
#X connect 0 0 7 1;
#X connect 1 0 15 0;
#X connect 2 0 12 0;
#X connect 3 0 2 0;
#X connect 4 0 6 0;
#X connect 5 0 19 0;
#X connect 6 0 5 1;
#X connect 7 0 1 0;
#X connect 8 0 17 0;
#X connect 9 0 5 0;
#X connect 10 0 13 0;
#X connect 10 0 15 1;
#X connect 10 0 20 1;
#X connect 11 0 20 0;
#X connect 12 0 10 0;
#X connect 12 0 14 1;
#X connect 12 1 15 2;
#X connect 13 0 4 0;
#X connect 14 0 9 0;
#X connect 15 0 14 0;
#X connect 15 1 11 0;
#X connect 17 0 7 0;
#X connect 18 0 17 1;
#X connect 19 0 16 0;
#X connect 20 0 4 0;
#X restore 342 682 pd singleup2;
#N canvas 21 50 1242 820 singledown2 0;
#X obj 410 225 r num-down;
#X obj 271 348 bng 15 250 50 0 empty empty empty 17 7 0 10 -262144
-1 -1;
#X floatatom 422 282 5 0 0 0 - - -, f 5;
#X obj 420 255 r num-down;
#X floatatom 484 494 5 0 0 0 - - -, f 5;
#X obj 306 623 + 0;
#X obj 485 513 * 12;
#X obj 298 304 spigot;
#X obj 268 79 r sixteenths;
#X obj 234 516 tabread notes-increasing;
#X obj 378 338 sel 0;
#X obj 396 437 bng 15 250 50 0 empty empty empty 17 7 0 10 -262144
-1 -1;
#X obj 422 301 t f f;
#X msg 506 462 0;
#X obj 247 467 % 1;
#X obj 624 67 r eighths;
#X obj 487 756 outlet;
#X obj 327 176 spigot 0;
#X obj 459 91 inlet;
#X obj 307 659 - 24;
#X obj 255 394 counter-down 0;
#X obj 480 427 counter-down 2;
#X connect 0 0 7 1;
#X connect 1 0 20 0;
#X connect 2 0 12 0;
#X connect 3 0 2 0;
#X connect 4 0 6 0;
#X connect 5 0 19 0;
#X connect 6 0 5 1;
#X connect 7 0 1 0;
#X connect 8 0 17 0;
#X connect 9 0 5 0;
#X connect 10 0 13 0;
#X connect 10 0 20 1;
#X connect 10 0 21 1;
#X connect 11 0 21 0;
#X connect 12 0 10 0;
#X connect 12 0 14 1;
#X connect 12 1 20 2;
#X connect 13 0 4 0;
#X connect 14 0 9 0;
#X connect 17 0 7 0;
#X connect 18 0 17 1;
#X connect 19 0 16 0;
#X connect 20 0 14 0;
#X connect 20 1 11 0;
#X connect 21 0 4 0;
#X restore 444 681 pd singledown2;
#N canvas 28 50 1242 820 updown2 0;
#X obj 338 565 outlet;
#N canvas 32 50 1242 820 singleup2 0;
#X obj 410 225 r num-down;
#X obj 307 345 bng 15 250 50 0 empty empty empty 17 7 0 10 -262144
-1 -1;
#X floatatom 422 282 5 0 0 0 - - -, f 5;
#X obj 420 255 r num-down;
#X floatatom 484 494 5 0 0 0 - - -, f 5;
#X obj 306 623 + 0;
#X obj 485 513 * 12;
#X obj 298 304 spigot;
#X obj 234 516 tabread notes-increasing;
#X obj 378 338 sel 0;
#X obj 396 437 bng 15 250 50 0 empty empty empty 17 7 0 10 -262144
-1 -1;
#X obj 422 301 t f f;
#X msg 506 462 0;
#X obj 247 467 % 1;
#X obj 255 394 counter-up 0;
#X obj 487 756 outlet;
#X obj 307 659 - 24;
#X obj 480 427 counter-up 2;
#X obj 631 661 outlet;
#X obj 225 164 inlet;
#X connect 0 0 7 1;
#X connect 1 0 14 0;
#X connect 2 0 11 0;
#X connect 3 0 2 0;
#X connect 4 0 6 0;
#X connect 5 0 16 0;
#X connect 6 0 5 1;
#X connect 7 0 1 0;
#X connect 8 0 5 0;
#X connect 9 0 12 0;
#X connect 9 0 14 1;
#X connect 9 0 17 1;
#X connect 10 0 17 0;
#X connect 11 0 9 0;
#X connect 11 0 13 1;
#X connect 11 1 14 2;
#X connect 12 0 4 0;
#X connect 13 0 8 0;
#X connect 14 0 13 0;
#X connect 14 1 10 0;
#X connect 16 0 15 0;
#X connect 17 0 4 0;
#X connect 17 1 18 0;
#X connect 19 0 7 0;
#X restore 276 400 pd singleup2;
#X obj 242 54 r sixteenths;
#X obj 301 151 spigot 0;
#X obj 433 66 inlet;
#N canvas 24 50 1242 820 singledown2 0;
#X obj 410 225 r num-down;
#X obj 271 348 bng 15 250 50 0 empty empty empty 17 7 0 10 -262144
-1 -1;
#X floatatom 422 282 5 0 0 0 - - -, f 5;
#X obj 420 255 r num-down;
#X floatatom 484 494 5 0 0 0 - - -, f 5;
#X obj 306 623 + 0;
#X obj 485 513 * 12;
#X obj 298 304 spigot;
#X obj 234 516 tabread notes-increasing;
#X obj 378 338 sel 0;
#X obj 396 437 bng 15 250 50 0 empty empty empty 17 7 0 10 -262144
-1 -1;
#X obj 422 301 t f f;
#X msg 506 462 0;
#X obj 247 467 % 1;
#X obj 487 756 outlet;
#X obj 307 659 - 24;
#X obj 255 394 counter-down 0;
#X obj 480 427 counter-down 2;
#X obj 678 572 outlet;
#X obj 327 176 inlet;
#X connect 0 0 7 1;
#X connect 1 0 16 0;
#X connect 2 0 11 0;
#X connect 3 0 2 0;
#X connect 4 0 6 0;
#X connect 5 0 15 0;
#X connect 6 0 5 1;
#X connect 7 0 1 0;
#X connect 8 0 5 0;
#X connect 9 0 12 0;
#X connect 9 0 16 1;
#X connect 9 0 17 1;
#X connect 10 0 17 0;
#X connect 11 0 9 0;
#X connect 11 0 13 1;
#X connect 11 1 16 2;
#X connect 12 0 4 0;
#X connect 13 0 8 0;
#X connect 15 0 14 0;
#X connect 16 0 13 0;
#X connect 16 1 10 0;
#X connect 17 0 4 0;
#X connect 17 1 18 0;
#X connect 19 0 7 0;
#X restore 411 403 pd singledown2;
#X obj 462 194 tgl 15 0 empty empty empty 17 7 0 10 -262144 -1 -1 0
1;
#X obj 463 133 tgl 15 0 empty empty empty 17 7 0 10 -262144 -1 -1 0
1;
#X obj 463 153 ==;
#X obj 314 243 spigot 0;
#X obj 230 240 spigot 1;
#X obj 544 71 r num-down;
#X obj 544 93 sel 0;
#X msg 544 115 1;
#X connect 1 0 0 0;
#X connect 1 1 7 0;
#X connect 2 0 3 0;
#X connect 3 0 10 0;
#X connect 3 0 9 0;
#X connect 4 0 3 1;
#X connect 5 0 0 0;
#X connect 5 1 7 0;
#X connect 6 0 9 1;
#X connect 7 0 8 0;
#X connect 7 0 10 1;
#X connect 8 0 6 0;
#X connect 9 0 5 0;
#X connect 10 0 1 0;
#X connect 11 0 12 0;
#X connect 12 0 13 0;
#X connect 13 0 7 0;
#X restore 1032 679 pd updown2;
#X msg 333 397 \; screenLine2 2: Up 2 Octave \;;
#X msg 370 447 \; screenLine2 2: Down 2 Octave \;;
#X msg 417 495 \; screenLine2 2: Up 4 Octave \;;
#X msg 642 416 \; screenLine2 2: Down 4 Octave \;;
#X msg 666 458 \; screenLine2 2: Double Randoms \;;
#X msg 688 498 \; screenLine2 2: Double Double \;;
#X msg 978 465 \; screenLine2 2: All \;;
#X msg 953 419 \; screenLine2 2: Up Down \;;
#X text 28 13 Controls Arpeggiation;
#X text 515 96 Sets the Pattern;
#X obj 548 191 change -1;
#X obj 846 102 sig~;
#X obj 846 124 lop~ 5;
#X obj 846 146 s~ knob3-smooth;
#X obj 779 176 i;
#X obj 779 198 change -1;
#X obj 778 148 * 100;
#X obj 779 259 s screenLine3;
#X msg 780 225 3: Tone \$1;
#X obj 1030 158 i;
#X obj 1030 180 change -1;
#X obj 1030 230 s screenLine4;
#X obj 1030 105 * 2000;
#X obj 1030 127 + 20;
#X msg 1030 207 4: Decay \$1 ms;
#X obj 658 864 noteout 2;
#X obj 1138 176 s decay;
#X obj 642 789 unpack 0 0;
#X obj 667 832 makenote 100 100;
#X obj 740 779 r decay;
#X text 814 829 send arp notes out ch 2;
#X obj 550 146 * 7;
#X obj 550 124 r knob2-auto;
#X obj 504 107 r knob2;
#X obj 771 37 r knob3;
#X obj 975 67 r knob4;
#X obj 698 3 r seq3-1-k3;
#X obj 1047 63 r seq3-1-k4;
#X obj 411 90 r seq3-1-k2;
#X connect 0 0 6 0;
#X connect 1 0 3 0;
#X connect 3 0 2 0;
#X connect 3 0 53 0;
#X connect 4 0 0 0;
#X connect 5 0 8 0;
#X connect 5 0 26 0;
#X connect 5 1 9 0;
#X connect 5 1 27 0;
#X connect 5 2 10 0;
#X connect 5 2 28 0;
#X connect 5 3 11 0;
#X connect 5 3 29 0;
#X connect 5 4 19 0;
#X connect 5 4 30 0;
#X connect 5 5 20 0;
#X connect 5 5 31 0;
#X connect 5 6 21 0;
#X connect 5 6 33 0;
#X connect 5 7 22 0;
#X connect 5 7 32 0;
#X connect 6 0 5 0;
#X connect 6 1 7 0;
#X connect 7 0 17 0;
#X connect 7 0 18 0;
#X connect 7 0 12 0;
#X connect 7 0 1 0;
#X connect 7 0 23 0;
#X connect 7 0 24 0;
#X connect 7 0 25 0;
#X connect 8 0 23 0;
#X connect 9 0 24 0;
#X connect 10 0 17 0;
#X connect 11 0 18 0;
#X connect 12 0 3 0;
#X connect 13 0 36 0;
#X connect 14 0 4 0;
#X connect 15 0 16 0;
#X connect 16 0 4 0;
#X connect 17 0 3 0;
#X connect 18 0 3 0;
#X connect 19 0 12 0;
#X connect 20 0 1 0;
#X connect 21 0 25 0;
#X connect 22 0 23 0;
#X connect 22 0 24 0;
#X connect 22 0 18 0;
#X connect 22 0 25 0;
#X connect 22 0 12 0;
#X connect 23 0 3 0;
#X connect 24 0 3 0;
#X connect 25 0 3 0;
#X connect 26 0 23 0;
#X connect 36 0 14 0;
#X connect 37 0 38 0;
#X connect 38 0 39 0;
#X connect 40 0 41 0;
#X connect 41 0 44 0;
#X connect 42 0 40 0;
#X connect 44 0 43 0;
#X connect 45 0 46 0;
#X connect 46 0 50 0;
#X connect 48 0 49 0;
#X connect 49 0 45 0;
#X connect 49 0 52 0;
#X connect 50 0 47 0;
#X connect 53 0 54 0;
#X connect 54 0 51 0;
#X connect 54 1 51 1;
#X connect 55 0 54 2;
#X connect 57 0 13 0;
#X connect 58 0 57 0;
#X connect 59 0 57 0;
#X connect 60 0 37 0;
#X connect 60 0 42 0;
#X connect 61 0 48 0;
#X connect 62 0 37 0;
#X connect 62 0 42 0;
#X connect 63 0 48 0;
#X connect 64 0 57 0;
#X restore 1384 908 pd arp;
#X obj 771 499 t b b b b f, f 34;
#X obj 1229 692 r others;
#X obj 928 580 s countem;
#X floatatom 1208 841 5 0 0 0 - - -, f 5;
#X obj 1208 867 s num-down;
#N canvas 1383 80 533 527 countnotes 0;
#X obj 104 289 > 0;
#X obj 104 316 sel 1;
#X obj 158 352 + 1, f 4;
#X obj 110 353 f 0;
#X obj 141 130 until;
#X obj 142 174 f;
#X obj 174 173 + 1, f 4;
#X msg 319 198 0, f 2;
#X msg 142 105 8, f 2;
#X obj 143 35 r countem;
#X obj 89 395 f 0;
#X obj 89 458 outlet;
#X obj 83 200 t f f;
#X obj 36 244 sel 7;
#X obj 30 313 bng 15 250 50 0 empty empty empty 17 7 0 10 -262144 -1
-1;
#X obj 201 422 print;
#X obj 106 234 tabread notes-from-poly;
#X obj 143 81 t b b;
#X connect 0 0 1 0;
#X connect 1 0 3 0;
#X connect 2 0 3 1;
#X connect 2 0 10 1;
#X connect 3 0 2 0;
#X connect 4 0 5 0;
#X connect 5 0 6 0;
#X connect 5 0 12 0;
#X connect 6 0 5 1;
#X connect 7 0 5 1;
#X connect 7 0 3 1;
#X connect 7 0 10 1;
#X connect 8 0 4 0;
#X connect 9 0 17 0;
#X connect 10 0 11 0;
#X connect 12 0 13 0;
#X connect 12 1 16 0;
#X connect 13 0 10 0;
#X connect 14 0 10 0;
#X connect 16 0 0 0;
#X connect 17 0 8 0;
#X connect 17 1 7 0;
#X restore 1208 815 pd countnotes;
#X obj 769 935 sel 0;
#X obj 769 957 s sixteenths;
#X obj 863 935 sel 0;
#X obj 863 957 s eighths;
#X obj 942 935 sel 0;
#X obj 942 957 s quarters;
#X obj 722 765 r cg-beat-clock;
#X obj 769 913 % 6;
#X obj 861 912 % 12;
#X obj 863 856 change;
#X obj 863 829 i;
#X obj 862 805 * 24;
#X obj 1057 805 loadbang;
#X msg 1057 827 0;
#X obj 1057 849 s midiInGate;
#X obj 710 988 print;
#X obj 887 765 r clock-for-arp;
#X obj 719 809 print;
#X connect 0 0 4 0;
#X connect 1 0 2 0;
#X connect 2 0 16 1;
#X connect 4 0 16 0;
#X connect 5 0 19 0;
#X connect 6 0 50 4;
#X connect 7 0 50 0;
#X connect 8 0 50 1;
#X connect 9 0 50 2;
#X connect 10 0 50 3;
#X connect 15 0 5 0;
#X connect 16 0 17 0;
#X connect 18 0 5 0;
#X connect 21 0 20 0;
#X connect 22 0 23 0;
#X connect 23 0 24 2;
#X connect 24 0 30 0;
#X connect 24 1 21 0;
#X connect 25 0 24 0;
#X connect 26 0 24 1;
#X connect 27 0 24 3;
#X connect 34 0 60 0;
#X connect 35 0 37 0;
#X connect 36 0 5 0;
#X connect 37 0 51 0;
#X connect 37 1 52 0;
#X connect 37 2 53 0;
#X connect 37 3 54 0;
#X connect 38 0 35 0;
#X connect 38 1 35 1;
#X connect 38 2 35 2;
#X connect 39 0 41 0;
#X connect 40 0 39 0;
#X connect 41 0 47 0;
#X connect 42 0 46 0;
#X connect 43 0 46 0;
#X connect 44 0 46 0;
#X connect 45 0 46 0;
#X connect 48 0 47 0;
#X connect 48 1 39 0;
#X connect 50 0 1 0;
#X connect 50 1 59 0;
#X connect 50 2 40 0;
#X connect 50 3 3 0;
#X connect 51 0 32 0;
#X connect 51 0 33 0;
#X connect 52 0 32 0;
#X connect 52 0 33 0;
#X connect 53 0 32 0;
#X connect 53 0 33 0;
#X connect 54 0 33 0;
#X connect 54 0 32 0;
#X connect 55 0 56 0;
#X connect 57 0 50 5;
#X connect 59 0 48 0;
#X connect 60 0 70 0;
#X connect 60 1 70 1;
#X connect 61 0 72 0;
#X connect 63 0 78 0;
#X connect 63 1 75 1;
#X connect 70 0 61 0;
#X connect 70 1 61 1;
#X connect 70 2 61 2;
#X connect 72 0 63 0;
#X connect 78 0 71 0;
#X connect 78 1 66 0;
#X connect 78 2 74 0;
#X connect 78 3 80 0;
#X connect 78 4 75 0;
#X connect 79 0 69 0;
#X connect 81 0 82 0;
#X connect 83 0 81 0;
#X connect 84 0 85 0;
#X connect 86 0 87 0;
#X connect 88 0 89 0;
#X connect 91 0 84 0;
#X connect 92 0 86 0;
#X connect 93 0 88 0;
#X connect 93 0 91 0;
#X connect 93 0 92 0;
#X connect 94 0 93 0;
#X connect 95 0 94 0;
#X connect 96 0 97 0;
#X connect 97 0 98 0;
#X connect 100 0 95 0;
