#N canvas 365 147 1067 765 10;
#X obj 424 361 spigot;
#X obj 153 33 inlet;
#X text 195 33 sequence clock;
#X obj 377 502 s \$0-get-next;
#X obj 318 130 r \$0-get-next;
#X obj 448 46 inlet;
#X obj 564 539 outlet;
#N canvas 217 115 660 336 count-up 0;
#X obj 224 144 + 1;
#X msg 230 99 0;
#X obj 125 47 inlet;
#X obj 163 194 outlet;
#X obj 303 37 inlet;
#X text 348 38 reset;
#X text 211 196 count;
#X text 171 44 inc;
#X obj 168 144 f 0;
#X obj 167 169 t f f;
#X connect 0 0 8 1;
#X connect 1 0 8 1;
#X connect 2 0 8 0;
#X connect 4 0 1 0;
#X connect 8 0 9 0;
#X connect 9 0 3 0;
#X connect 9 1 0 0;
#X restore 432 204 pd count-up;
#X obj 431 235 text get \$1 -1;
#X obj 511 359 spigot;
#X text 640 275 if a valid entry \, let it through \, otherwise block
;
#X obj 443 100 t b b b;
#X msg 721 158 0;
#X text 771 159 zero out last clock value;
#N canvas 6 50 450 300 check-line 0;
#X msg 107 149 0;
#X obj 116 94 sel 2 0;
#X msg 149 151 1;
#X obj 111 193 outlet;
#X obj 110 35 inlet;
#X text 226 108 0 is good line;
#X text 219 153 open / close spigots accordingly;
#X text 230 81 2 is line of range;
#X connect 0 0 3 0;
#X connect 1 0 0 0;
#X connect 1 1 2 0;
#X connect 2 0 3 0;
#X connect 4 0 1 0;
#X restore 511 280 pd check-line;
#X obj 572 481 route length;
#N canvas 5 50 976 590 compare-times 0;
#X obj 281 116 list split 1;
#X obj 335 352 list, f 5;
#X obj 332 381 list trim;
#X obj 246 243 >=;
#X obj 263 278 sel 1;
#X obj 263 305 t b b;
#X text 21 248 wait until sequcned clock advances then send out event
and get next., f 26;
#X obj 230 195 f;
#X obj 258 149 t b f;
#X obj 151 46 inlet;
#X obj 285 48 inlet;
#X obj 649 53 inlet;
#X obj 649 75 bang;
#X msg 649 97 0;
#X obj 335 429 outlet;
#X obj 210 424 outlet;
#X text 64 426 bang to get next;
#X text 384 118 split time from event;
#X text 701 64 when starting sequene \, we want to zero this out.,
f 30;
#X text 396 436 output event;
#X text 338 45 event line;
#X text 57 49 seq clock;
#X connect 0 0 8 0;
#X connect 0 1 1 1;
#X connect 1 0 2 0;
#X connect 2 0 14 0;
#X connect 3 0 4 0;
#X connect 4 0 5 0;
#X connect 5 0 15 0;
#X connect 5 1 1 0;
#X connect 7 0 3 0;
#X connect 8 0 7 0;
#X connect 8 1 3 1;
#X connect 9 0 7 0;
#X connect 10 0 0 0;
#X connect 11 0 12 0;
#X connect 12 0 13 0;
#X connect 13 0 7 1;
#X restore 461 419 pd compare-times;
#X obj 680 537 outlet;
#X text 738 542 length;
#X text 564 569 events;
#X text 495 47 rewind / start;
#X text 712 481 length gets output on rewind / start;
#X connect 0 0 16 0;
#X connect 1 0 0 0;
#X connect 4 0 7 0;
#X connect 5 0 11 0;
#X connect 7 0 8 0;
#X connect 8 0 9 0;
#X connect 8 1 14 0;
#X connect 9 0 16 1;
#X connect 11 0 7 0;
#X connect 11 1 7 1;
#X connect 11 2 12 0;
#X connect 12 0 16 2;
#X connect 14 0 9 1;
#X connect 14 0 0 1;
#X connect 15 0 17 0;
#X connect 15 1 6 0;
#X connect 16 0 3 0;
#X connect 16 1 15 0;
