#N canvas 8 50 1005 631 10;
#X text 484 31 start;
#X text 382 29 stop;
#X text 603 32 start on next beat;
#X text 826 34 loop;
#X obj 353 248 seq-clocker;
#X floatatom 520 393 5 0 0 0 - - -, f 5;
#X obj 206 72 * 4;
#X obj 206 94 i;
#X obj 206 116 / 4;
#X obj 353 283 + 0.125;
#X obj 310 119 s \$0-flush;
#X obj 309 78 t b b;
#X obj 531 336 s \$0-flush;
#X obj 433 501 r \$0-flush;
#X obj 520 419 + 0.5;
#X obj 533 448 i;
#X obj 206 44 inlet;
#X text 207 15 beat clock;
#X obj 334 32 inlet;
#X obj 442 33 inlet;
#X obj 555 33 inlet;
#X obj 773 34 inlet;
#X obj 616 147 r \$0-len;
#X obj 521 474 t f f;
#X obj 528 538 outlet;
#X obj 437 535 outlet;
#X obj 362 540 outlet;
#X obj 358 320 t f f;
#X obj 266 540 outlet;
#X obj 475 294 t b b;
#X text 582 433 round length to nearest beat;
#X text 544 288 rewind the sequence on start or loop;
#X text 600 538 report lenght;
#X text 443 574 a bang sent when sequence starts \, loops \, or stops.
probably used to flush notes;
#X text 361 565 events;
#X text 262 568 seq clock;
#X obj 388 358 seq-reader \$1;
#X obj 568 508 s \$0-len;
#X connect 4 0 9 0;
#X connect 4 1 29 0;
#X connect 4 2 29 0;
#X connect 5 0 14 0;
#X connect 6 0 7 0;
#X connect 7 0 8 0;
#X connect 8 0 4 0;
#X connect 9 0 27 0;
#X connect 11 0 10 0;
#X connect 11 1 4 1;
#X connect 13 0 25 0;
#X connect 14 0 15 0;
#X connect 15 0 23 0;
#X connect 16 0 6 0;
#X connect 18 0 11 0;
#X connect 19 0 4 2;
#X connect 20 0 4 3;
#X connect 21 0 4 4;
#X connect 22 0 4 5;
#X connect 23 0 24 0;
#X connect 23 1 37 0;
#X connect 27 0 28 0;
#X connect 27 1 36 0;
#X connect 29 0 36 1;
#X connect 29 1 12 0;
#X connect 36 0 26 0;
#X connect 36 1 5 0;
