#N canvas 19 50 965 592 10;
#N canvas 7 50 1241 632 clock-control 0;
#X obj 15 63 inlet;
#X obj 297 57 inlet;
#X obj 400 57 inlet;
#X obj 188 432 outlet;
#X obj 516 55 inlet;
#X text 343 58 stop;
#X text 446 58 start;
#X obj 403 442 outlet;
#X text 248 433 beat clock out;
#X text 558 57 start on next beat;
#X obj 695 58 inlet;
#X text 742 57 loop ctrl;
#X obj 836 58 inlet;
#X text 57 60 beat clock in;
#X obj 298 98 bang;
#X obj 398 89 bang;
#X obj 516 85 bang;
#X msg 299 124 0;
#X obj 414 124 t b b;
#X obj 423 322 t b b;
#N canvas 501 273 450 300 wait-for-next-beat 0;
#X obj 109 71 inlet;
#X obj 211 67 inlet;
#X obj 118 215 outlet;
#X obj 114 137 == 1;
#X obj 114 115 i 0;
#X obj 114 162 sel 1;
#X obj 114 184 t b b;
#X msg 166 152 0;
#X msg 203 92 1;
#X connect 0 0 4 0;
#X connect 1 0 8 0;
#X connect 3 0 5 0;
#X connect 4 0 3 0;
#X connect 5 0 6 0;
#X connect 6 0 2 0;
#X connect 6 1 7 0;
#X connect 7 0 4 1;
#X connect 8 0 4 1;
#X restore 386 297 pd wait-for-next-beat;
#X msg 467 360 1;
#X msg 445 156 1;
#X obj 773 437 outlet;
#X text 833 436 spigot control;
#X obj 748 234 spigot 1;
#X obj 798 184 ==;
#X obj 756 271 bang;
#X msg 757 297 0;
#X text 813 234 if loop off \, shut off seq clock output at end;
#X text 883 56 seq end in;
#X text 460 443 seq clock start;
#X obj 40 98 t f f;
#X obj 169 179 <;
#X obj 169 205 sel 1;
#X obj 172 144 t f f;
#X text 212 187 bang on next rollover \, top of beat;
#X connect 0 0 32 0;
#X connect 1 0 14 0;
#X connect 2 0 15 0;
#X connect 4 0 16 0;
#X connect 10 0 26 0;
#X connect 12 0 25 0;
#X connect 14 0 17 0;
#X connect 15 0 18 0;
#X connect 16 0 20 1;
#X connect 17 0 23 0;
#X connect 18 0 7 0;
#X connect 18 1 22 0;
#X connect 19 0 7 0;
#X connect 19 1 21 0;
#X connect 20 0 19 0;
#X connect 21 0 23 0;
#X connect 22 0 23 0;
#X connect 25 0 27 0;
#X connect 26 0 25 1;
#X connect 27 0 28 0;
#X connect 28 0 23 0;
#X connect 32 0 3 0;
#X connect 32 1 35 0;
#X connect 33 0 34 0;
#X connect 34 0 20 0;
#X connect 35 0 33 1;
#X connect 35 1 33 0;
#X restore 211 199 pd clock-control;
#X obj 457 97 tgl 15 0 empty empty empty 17 7 0 10 -262144 -1 -1 0
1;
#X text 284 22 start;
#X text 347 19 start on next beat;
#X text 531 23 loop;
#X obj 238 449 spigot;
#N canvas 220 50 1124 809 clocker 0;
#X obj 312 332 wrap;
#X floatatom 339 413 5 0 0 0 - - -, f 5;
#X obj 458 134 t b b;
#X obj 453 82 bng 15 250 50 0 empty empty empty 17 7 0 10 -262144 -1
-1;
#X floatatom 936 330 5 0 0 0 - - -, f 5;
#X obj 312 310 - 0;
#X obj 314 215 f;
#X obj 312 355 t f f;
#X obj 273 690 outlet;
#X obj 271 608 + 1;
#X obj 453 53 inlet;
#X obj 993 50 inlet;
#X text 1040 51 length;
#X obj 290 58 inlet;
#X obj 352 688 outlet;
#X text 89 314 derive an internal beat clock from the master by offsetting
phase., f 34;
#X text 392 538 bang at end;
#X obj 332 506 >= 4;
#X obj 312 438 + 0;
#X text 47 609 send out seq clock. for the last value send out 1 cause
if looping this would be where it wraps around., f 33;
#N canvas 0 50 450 300 wait-for-next-tick 0;
#X obj 109 71 inlet;
#X obj 211 67 inlet;
#X obj 118 215 outlet;
#X obj 114 137 == 1;
#X obj 114 115 i 0;
#X obj 114 162 sel 1;
#X obj 114 184 t b b;
#X msg 166 152 0;
#X msg 203 92 1;
#X connect 0 0 4 0;
#X connect 1 0 8 0;
#X connect 3 0 5 0;
#X connect 4 0 3 0;
#X connect 5 0 6 0;
#X connect 6 0 2 0;
#X connect 6 1 7 0;
#X connect 7 0 4 1;
#X connect 8 0 4 1;
#X restore 313 176 pd wait-for-next-tick;
#X text 503 50 start;
#X obj 517 165 t b b;
#X obj 340 536 sel 1 0;
#X obj 290 572 f;
#X obj 312 467 t f f;
#X msg 319 611 1;
#X obj 402 665 s \$0-loop;
#X obj 515 137 r \$0-loop;
#X obj 473 618 f;
#X obj 473 643 - 4;
#X obj 347 248 f;
#X obj 347 281 - 0;
#X obj 345 573 t b b b b;
#X obj 291 106 t f b f f;
#N canvas 80 99 660 336 count-beats 0;
#X obj 175 216 + 1;
#X msg 230 99 0;
#X obj 126 152 <;
#X obj 126 178 sel 1;
#X obj 129 117 t f f;
#X obj 141 219 i 1;
#X text 225 151 when current value is lees than previous value the
phasor rolled over and we increment the beat count.;
#X obj 125 47 inlet;
#X obj 136 269 outlet;
#X obj 303 37 inlet;
#X text 171 44 beat clock in;
#X text 348 38 reset;
#X text 184 271 count;
#X connect 0 0 5 1;
#X connect 1 0 2 1;
#X connect 1 0 5 0;
#X connect 2 0 3 0;
#X connect 3 0 5 0;
#X connect 4 0 2 1;
#X connect 4 1 2 0;
#X connect 5 0 0 0;
#X connect 5 0 8 0;
#X connect 7 0 4 0;
#X connect 9 0 1 0;
#X restore 339 387 pd count-beats;
#X text 443 366 when phasor is reset from a start condition or rollover
\, reset beat counter., f 25;
#X text 335 61 beat clock;
#X obj 473 669 s \$0-overshoot;
#X obj 385 245 r \$0-overshoot;
#X text 87 461 add beat count to beat phase;
#X text 509 244 subtract the overshoot amount from below (the amount
the sequence clock advanced beyond the sequence length);
#X text 555 59 when we start the sequence we want the first output
to be 1 (top of first beat) \, so we wait for next tick.;
#X text 175 701 seq clock out;
#X text 432 704 bang at end of sequence. this gets sent out before
the seq clock. since the sequence clock just loops \, this is useful
for shutting off the output externally (spigot) if you just want a
seuqnce to play once;
#X floatatom 573 670 10 0 0 0 - - -, f 10;
#X text 28 55 this patch takes a 0-1 beat phase clock input and outputs
a sequence clock of arbitrary length that is syncrhonized to the input
clock., f 38;
#X text 29 159 it corrects for overshoot when the clock doesn't exactly
equal the length., f 38;
#X text 593 145 on loop \, the last value (equal to sequence length)
is acutally the top of the next loop \, so we use the previous beat
phase value as the offset.;
#X text 560 597 we can't depend on the sequence clock (which is based
on the input beat phasor) being exactly equal to the sequence length.
so if it advances past the sequence length \, subtract this overshoot
on the next loop to keep everything in sync.;
#X text 29 119 the sequence clock goes from 1 to len+1 and loops continuously
, f 38;
#X connect 0 0 7 0;
#X connect 1 0 18 1;
#X connect 2 0 20 1;
#X connect 2 1 35 1;
#X connect 3 0 2 0;
#X connect 4 0 17 1;
#X connect 4 0 30 1;
#X connect 5 0 0 0;
#X connect 6 0 5 1;
#X connect 7 0 18 0;
#X connect 7 1 35 0;
#X connect 9 0 8 0;
#X connect 10 0 3 0;
#X connect 11 0 4 0;
#X connect 13 0 34 0;
#X connect 17 0 23 0;
#X connect 18 0 25 0;
#X connect 20 0 6 0;
#X connect 22 0 31 0;
#X connect 22 1 35 1;
#X connect 23 0 33 0;
#X connect 23 1 24 0;
#X connect 24 0 9 0;
#X connect 25 0 17 0;
#X connect 25 1 24 1;
#X connect 25 1 29 1;
#X connect 26 0 8 0;
#X connect 28 0 22 0;
#X connect 29 0 30 0;
#X connect 30 0 38 0;
#X connect 30 0 45 0;
#X connect 31 0 32 0;
#X connect 32 0 5 1;
#X connect 33 0 26 0;
#X connect 33 1 14 0;
#X connect 33 2 27 0;
#X connect 33 3 29 0;
#X connect 34 0 5 0;
#X connect 34 1 20 0;
#X connect 34 2 6 1;
#X connect 34 3 31 1;
#X connect 35 0 1 0;
#X connect 39 0 32 1;
#X restore 211 281 pd clocker;
#X obj 424 505 outlet;
#X obj 327 508 outlet;
#X obj 584 63 inlet;
#X text 624 63 length;
#X obj 75 42 inlet;
#X obj 257 238 t b b;
#X obj 364 335 t b b;
#X obj 238 501 outlet;
#X text 184 535 seq clock out;
#X text 316 534 seq starting;
#X text 422 533 seq ended;
#X text 115 44 beat clock;
#X obj 228 50 inlet;
#X obj 284 48 inlet;
#X obj 368 46 inlet;
#X obj 502 45 inlet;
#X text 221 23 stop;
#X text 382 273 the clocker just loops forever. it sends out a bang
at the end of each loop that we can use to shut off its output if we
don't want a looping clock.;
#X obj 421 455 spigot;
#X obj 349 381 s \$0-ended;
#X obj 321 233 s \$0-output-en;
#X obj 353 174 r \$0-ended;
#X obj 492 370 r \$0-output-en;
#X obj 548 162 moses 1;
#X text 635 165 just don't allow length less than 1 beat;
#X text 530 460 bang sent out when sequence is starting and when it
ended (loop). this can be used to rewind a reader., f 44;
#X connect 0 0 6 0;
#X connect 0 1 12 0;
#X connect 0 2 27 0;
#X connect 1 0 0 4;
#X connect 5 0 14 0;
#X connect 6 0 5 0;
#X connect 6 1 13 0;
#X connect 9 0 30 0;
#X connect 11 0 0 0;
#X connect 12 0 6 1;
#X connect 12 1 8 0;
#X connect 13 0 26 0;
#X connect 13 1 25 0;
#X connect 19 0 0 1;
#X connect 20 0 0 2;
#X connect 21 0 0 3;
#X connect 22 0 1 0;
#X connect 25 0 7 0;
#X connect 28 0 0 5;
#X connect 29 0 5 1;
#X connect 29 0 25 1;
#X connect 30 1 6 2;
