#N canvas 472 122 1067 765 10;
#X obj 429 355 spigot;
#X obj 265 41 inlet;
#X text 307 41 sequence clock;
#X obj 414 477 s \$0-get-next;
#X obj 338 125 r \$0-get-next;
#X obj 448 46 inlet;
#X text 495 47 rewind;
#X obj 582 539 outlet;
#N canvas 217 115 660 336 count-up 0;
#X obj 224 144 + 1;
#X msg 230 99 0;
#X obj 125 47 inlet;
#X obj 163 194 outlet;
#X obj 303 37 inlet;
#X text 348 38 reset;
#X text 211 196 count;
#X text 171 44 inc;
#X obj 168 144 f 0;
#X obj 167 169 t f f;
#X connect 0 0 8 1;
#X connect 1 0 8 1;
#X connect 2 0 8 0;
#X connect 4 0 1 0;
#X connect 8 0 9 0;
#X connect 9 0 3 0;
#X connect 9 1 0 0;
#X restore 432 204 pd count-up;
#X obj 420 238 text get \$1 -1;
#X obj 511 359 spigot;
#X text 605 281 if a valid entry \, let it through \, otherwise block
;
#X obj 445 103 t b b b;
#N canvas 5 50 449 248 check-line 0;
#X msg 150 91 0;
#X obj 158 63 sel 2 0;
#X msg 192 93 1;
#X obj 164 33 inlet;
#X obj 136 160 outlet;
#X connect 0 0 4 0;
#X connect 1 0 0 0;
#X connect 1 1 2 0;
#X connect 2 0 4 0;
#X connect 3 0 1 0;
#X restore 510 282 pd check-line;
#N canvas 5 50 812 681 compare-times 0;
#X obj 330 143 list split 1;
#X obj 383 360 list, f 5;
#X obj 381 391 list trim;
#X obj 294 251 >=;
#X obj 311 286 sel 1;
#X obj 311 313 t b b;
#X text 69 256 wait until sequcned clock advances then send out event
and get next., f 26;
#X obj 279 222 f;
#X obj 307 176 t b f;
#X obj 236 78 inlet;
#X text 211 43 seq clock;
#X obj 347 78 inlet;
#X text 365 50 event;
#X obj 583 75 inlet;
#X obj 583 97 bang;
#X msg 583 119 0;
#X text 579 51 zero it out;
#X obj 384 428 outlet;
#X obj 277 398 outlet;
#X connect 0 0 8 0;
#X connect 0 1 1 1;
#X connect 1 0 2 0;
#X connect 2 0 17 0;
#X connect 3 0 4 0;
#X connect 4 0 5 0;
#X connect 5 0 18 0;
#X connect 5 1 1 0;
#X connect 7 0 3 0;
#X connect 8 0 7 0;
#X connect 8 1 3 1;
#X connect 9 0 7 0;
#X connect 11 0 0 0;
#X connect 13 0 14 0;
#X connect 14 0 15 0;
#X connect 15 0 7 1;
#X restore 477 419 pd compare-times;
#X obj 580 460 route length;
#X obj 675 540 outlet;
#X text 730 539 report length;
#X text 524 536 event;
#X text 518 98 zero out the last stored seq clock time \, reset line
counter \, get first line;
#X connect 0 0 14 0;
#X connect 1 0 0 0;
#X connect 4 0 8 0;
#X connect 5 0 12 0;
#X connect 8 0 9 0;
#X connect 9 0 10 0;
#X connect 9 1 13 0;
#X connect 10 0 14 1;
#X connect 12 0 8 0;
#X connect 12 1 8 1;
#X connect 12 2 14 2;
#X connect 13 0 0 1;
#X connect 13 0 10 1;
#X connect 14 0 3 0;
#X connect 14 1 15 0;
#X connect 15 0 16 0;
#X connect 15 1 7 0;
