#N canvas 470 128 1067 765 10;
#X obj 511 388 list split 1;
#X obj 565 624 list, f 5;
#X obj 562 653 list trim;
#X obj 476 515 >=;
#X obj 493 550 sel 1;
#X obj 493 577 t b b;
#X obj 420 378 spigot;
#X obj 160 82 inlet;
#X text 202 82 sequence clock;
#X obj 467 621 s \$0-get-next;
#X obj 318 130 r \$0-get-next;
#X obj 448 46 inlet;
#X text 495 47 rewind;
#X obj 563 692 outlet;
#X msg 516 297 0;
#X text 251 520 waitt until sequcned clock advances then send out event
and get next., f 26;
#N canvas 217 115 660 336 count-up 0;
#X obj 224 144 + 1;
#X msg 230 99 0;
#X obj 125 47 inlet;
#X obj 163 194 outlet;
#X obj 303 37 inlet;
#X text 348 38 reset;
#X text 211 196 count;
#X text 171 44 inc;
#X obj 168 144 f 0;
#X obj 167 169 t f f;
#X connect 0 0 8 1;
#X connect 1 0 8 1;
#X connect 2 0 8 0;
#X connect 4 0 1 0;
#X connect 8 0 9 0;
#X connect 9 0 3 0;
#X connect 9 1 0 0;
#X restore 432 204 pd count-up;
#X obj 431 235 text get \$1 -1;
#X obj 524 269 sel 2 0;
#X obj 511 359 spigot;
#X msg 558 299 1;
#X text 657 286 if a valid entry \, let it through \, otherwise block
;
#X obj 460 467 f;
#X obj 488 421 t b f;
#X obj 443 100 t b b b;
#X msg 721 158 0;
#X text 771 159 zero out last clock value;
#X connect 0 0 23 0;
#X connect 0 1 1 1;
#X connect 1 0 2 0;
#X connect 2 0 13 0;
#X connect 3 0 4 0;
#X connect 4 0 5 0;
#X connect 5 0 9 0;
#X connect 5 1 1 0;
#X connect 6 0 22 0;
#X connect 7 0 6 0;
#X connect 10 0 16 0;
#X connect 11 0 24 0;
#X connect 14 0 6 1;
#X connect 14 0 19 1;
#X connect 16 0 17 0;
#X connect 17 0 19 0;
#X connect 17 1 18 0;
#X connect 18 0 14 0;
#X connect 18 1 20 0;
#X connect 19 0 0 0;
#X connect 20 0 19 1;
#X connect 20 0 6 1;
#X connect 22 0 3 0;
#X connect 23 0 22 0;
#X connect 23 1 3 1;
#X connect 24 0 16 0;
#X connect 24 1 16 1;
#X connect 24 2 25 0;
#X connect 25 0 22 1;
