#N canvas 288 119 1403 686 10;
#X obj 239 402 vsl 15 128 0 1 0 0 empty empty empty 0 -9 0 10 -262144
-1 -1 2752 1;
#X obj 336 394 vsl 15 128 1 20 0 0 empty empty empty 0 -9 0 10 -262144
-1 -1 713 1;
#X floatatom 336 543 5 0 0 0 - - -, f 5;
#X floatatom 719 168 5 0 0 0 - - -, f 5;
#X floatatom 239 547 5 0 0 0 - - -, f 5;
#X msg 719 138 4;
#X obj 719 106 loadbang;
#N canvas 380 99 415 596 metronome 0;
#X obj 68 226 snapshot~;
#X obj 94 191 bang~;
#X obj 81 274 i;
#X obj 68 323 change;
#X floatatom 68 130 5 0 0 0 - - -, f 5;
#X floatatom 63 71 5 0 350 0 - - -, f 5;
#X obj 64 100 / 60;
#X msg 132 61 0;
#X obj 117 20 loadbang;
#X obj 68 158 phasor~ 1;
#X msg 93 50 60;
#X obj 48 19 inlet;
#X obj 65 378 outlet;
#X text 124 279 divide clock into steps;
#X obj 81 252 * 60;
#X obj 81 296 / 60;
#X connect 0 0 14 0;
#X connect 1 0 0 0;
#X connect 2 0 15 0;
#X connect 3 0 12 0;
#X connect 4 0 9 0;
#X connect 5 0 6 0;
#X connect 6 0 4 0;
#X connect 7 0 9 1;
#X connect 8 0 7 0;
#X connect 8 0 10 0;
#X connect 9 0 0 0;
#X connect 10 0 5 0;
#X connect 11 0 5 0;
#X connect 14 0 2 0;
#X connect 15 0 3 0;
#X restore 73 75 pd metronome;
#X obj 434 112 tgl 15 0 empty empty empty 17 7 0 10 -262144 -1 -1 1
1;
#X obj 301 130 r beat-clock;
#X obj 432 48 bng 15 250 50 0 empty empty empty 17 7 0 10 -262144 -1
-1;
#X obj 433 69 bng 15 250 50 0 empty empty empty 17 7 0 10 -262144 -1
-1;
#X obj 433 89 bng 15 250 50 0 empty empty empty 17 7 0 10 -262144 -1
-1;
#X text 454 69 start;
#X text 454 47 stop;
#X text 456 89 start on next beat;
#X text 457 112 loop;
#X floatatom 67 43 5 0 0 0 - - -, f 5;
#X obj 301 165 t f f;
#X obj 263 580 -;
#X floatatom 264 615 50 0 0 0 - - -, f 50;
#X msg 118 51 0;
#X msg 162 43 60;
#X obj 390 397 print;
#X obj 69 104 s beat-clock;
#X text 459 232 bang sent out when sequence is starting and when it
ended. this can be used to rewind a reader., f 44;
#X obj 1063 295 text define -k seq-1;
#A set 1.45 note 64 100 \; 1.75 note 64 0 \; 2.15 note 64 100 \; 2.5
note 64 0 \; 2.86667 note 64 100 \; 3.23333 note 64 0 \; 3.6 note 64
100 \; 3.93333 note 64 0 \;;
#X msg 1063 268 clear;
#X obj 924 619 text set seq-1;
#X msg 951 584 1e+06;
#X obj 924 559 t a b;
#X obj 387 326 seq-reader seq-1;
#X text 520 327 simple reader;
#X obj 353 233 seq-clocker;
#X obj 828 211 r beat-clock;
#X obj 959 129 bng 15 250 50 0 empty empty empty 17 7 0 10 -262144
-1 -1;
#X obj 960 150 bng 15 250 50 0 empty empty empty 17 7 0 10 -262144
-1 -1;
#X obj 960 170 bng 15 250 50 0 empty empty empty 17 7 0 10 -262144
-1 -1;
#X text 981 150 start;
#X text 981 128 stop;
#X text 983 170 start on next beat;
#X obj 880 314 seq-clocker-up;
#X floatatom 880 352 5 0 0 0 - - -, f 5;
#X obj 947 420 f;
#X obj 1032 354 r notes;
#X obj 1023 382 t b a;
#X obj 975 497 list append;
#X msg 947 447 \$1 note;
#X obj 1040 544 print;
#X obj 398 277 bng 15 250 50 0 empty empty empty 17 7 0 10 -262144
-1 -1;
#X obj 426 276 bng 15 250 50 0 empty empty empty 17 7 0 10 -262144
-1 -1;
#X connect 0 0 4 0;
#X connect 1 0 2 0;
#X connect 2 0 19 1;
#X connect 3 0 33 5;
#X connect 4 0 19 0;
#X connect 5 0 3 0;
#X connect 6 0 5 0;
#X connect 7 0 24 0;
#X connect 8 0 33 4;
#X connect 9 0 18 0;
#X connect 10 0 33 1;
#X connect 11 0 33 2;
#X connect 12 0 33 3;
#X connect 17 0 7 0;
#X connect 18 0 0 0;
#X connect 18 1 33 0;
#X connect 19 0 20 0;
#X connect 21 0 7 0;
#X connect 22 0 7 0;
#X connect 27 0 26 0;
#X connect 29 0 28 1;
#X connect 30 0 28 0;
#X connect 30 1 29 0;
#X connect 31 0 23 0;
#X connect 33 0 1 0;
#X connect 33 0 31 0;
#X connect 33 1 31 1;
#X connect 33 1 49 0;
#X connect 33 2 31 1;
#X connect 33 2 50 0;
#X connect 34 0 41 0;
#X connect 35 0 41 1;
#X connect 36 0 41 2;
#X connect 37 0 41 3;
#X connect 41 0 42 0;
#X connect 42 0 43 1;
#X connect 43 0 47 0;
#X connect 44 0 45 0;
#X connect 45 0 43 0;
#X connect 45 1 46 1;
#X connect 46 0 48 0;
#X connect 46 0 30 0;
#X connect 47 0 46 0;
