#N canvas 155 138 1560 734 10;
#X obj 239 402 vsl 15 128 0 1 0 0 empty empty empty 0 -9 0 10 -262144
-1 -1 5292 1;
#X obj 336 394 vsl 15 128 1 20 0 0 empty empty empty 0 -9 0 10 -262144
-1 -1 0 1;
#X floatatom 336 543 5 0 0 0 - - -, f 5;
#X floatatom 719 168 5 0 0 0 - - -, f 5;
#X floatatom 239 547 5 0 0 0 - - -, f 5;
#X msg 719 138 4;
#X obj 719 106 loadbang;
#N canvas 380 99 415 596 metronome 0;
#X obj 68 226 snapshot~;
#X obj 94 191 bang~;
#X obj 81 274 i;
#X obj 68 323 change;
#X floatatom 68 130 5 0 0 0 - - -, f 5;
#X floatatom 63 71 5 0 350 0 - - -, f 5;
#X obj 64 100 / 60;
#X msg 132 61 0;
#X obj 117 20 loadbang;
#X obj 68 158 phasor~ 1;
#X msg 93 50 60;
#X obj 48 19 inlet;
#X obj 65 378 outlet;
#X text 124 279 divide clock into steps;
#X obj 81 252 * 60;
#X obj 81 296 / 60;
#X connect 0 0 14 0;
#X connect 1 0 0 0;
#X connect 2 0 15 0;
#X connect 3 0 12 0;
#X connect 4 0 9 0;
#X connect 5 0 6 0;
#X connect 6 0 4 0;
#X connect 7 0 9 1;
#X connect 8 0 7 0;
#X connect 8 0 10 0;
#X connect 9 0 0 0;
#X connect 10 0 5 0;
#X connect 11 0 5 0;
#X connect 14 0 2 0;
#X connect 15 0 3 0;
#X restore 73 75 pd metronome;
#X obj 434 112 tgl 15 0 empty empty empty 17 7 0 10 -262144 -1 -1 0
1;
#X obj 301 130 r beat-clock;
#X obj 432 48 bng 15 250 50 0 empty empty empty 17 7 0 10 -262144 -1
-1;
#X obj 433 69 bng 15 250 50 0 empty empty empty 17 7 0 10 -262144 -1
-1;
#X obj 433 89 bng 15 250 50 0 empty empty empty 17 7 0 10 -262144 -1
-1;
#X text 454 69 start;
#X text 454 47 stop;
#X text 456 89 start on next beat;
#X text 457 112 loop;
#X floatatom 67 43 5 0 0 0 - - -, f 5;
#X obj 301 165 t f f;
#X obj 263 580 -;
#X floatatom 264 615 50 0 0 0 - - -, f 50;
#X msg 118 51 0;
#X msg 162 43 60;
#X obj 400 375 print;
#X obj 69 104 s beat-clock;
#X obj 1161 229 text define -k seq-1;
#A set 0 length 4.61667 \; 1 note 70 100 \; 1.11667 note 70 0 \; 1.35
note 71 100 \; 1.48333 note 71 0 \; 1.65 note 65 100 \; 1.8 note 65
0 \; 1.96667 note 69 100 \; 2.08333 note 69 0 \;;
#X msg 1161 202 clear;
#X obj 387 326 seq-reader seq-1;
#X text 520 327 simple reader;
#X obj 353 233 seq-clocker;
#X obj 1160 9 r notes;
#X floatatom 492 352 5 0 0 0 - - -, f 5;
#X text 445 237 rewind the sequence on start or loop;
#X obj 499 389 i;
#N canvas 4 50 450 300 prepend-event-name 0;
#X obj 103 169 list append;
#X obj 145 61 t b a;
#X msg 121 116 note;
#X obj 151 20 inlet;
#X obj 130 224 outlet;
#X connect 0 0 4 0;
#X connect 1 0 2 0;
#X connect 1 1 0 1;
#X connect 2 0 0 0;
#X connect 3 0 1 0;
#X restore 1179 63 pd prepend-event-name;
#X obj 1042 173 seq-recorder seq-1;
#X obj 963 105 r beat-clock;
#X obj 1086 127 bng 15 250 50 0 empty empty empty 17 7 0 10 -262144
-1 -1;
#X obj 1186 140 bng 15 250 50 0 empty empty empty 17 7 0 10 -262144
-1 -1;
#X text 1108 126 stop;
#X text 1207 140 arm;
#X floatatom 1045 218 5 0 0 0 - - -, f 5;
#N canvas 4 50 1435 812 sounds 0;
#X obj 499 619 bng 15 250 50 0 empty empty empty 17 7 0 10 -262144
-1 -1;
#X obj 499 673 bng 15 250 50 0 empty empty empty 17 7 0 10 -262144
-1 -1;
#X obj 777 662 catch~ samp_voice_out;
#X obj 953 219 i;
#X obj 73 511 loadbang;
#X obj 499 642 sampler-voice metro1.wav 0;
#X obj 502 394 r quarters;
#X floatatom 490 550 5 0 0 0 - - -, f 5;
#X obj 490 487 f 0;
#X obj 502 443 bng 15 250 50 0 empty empty empty 17 7 0 10 -262144
-1 -1;
#X obj 414 612 sel 0;
#X text 630 623 on click;
#X text 621 675 on accent;
#X obj 502 416 t b b;
#X obj 525 486 + 1;
#X floatatom 587 482 5 0 0 0 - - -, f 5;
#X msg 405 431 0, f 4;
#X obj 490 520 % 4;
#X obj 953 166 r knob3;
#X obj 1106 220 i;
#X obj 184 54 r aux;
#X obj 747 228 i;
#X obj 747 175 r knob2;
#X obj 770 722 throw~ outL;
#X obj 879 719 throw~ outR;
#X msg 807 405 2: Accent \$1;
#X obj 807 430 s screenLine2;
#X obj 1106 169 r knob4;
#X obj 1106 292 s screenLine4;
#X msg 953 267 3: Metro Tone \$1;
#X obj 953 191 * 100;
#X obj 1106 194 * 100;
#X msg 1106 270 4: Synth Tone \$1;
#X obj 747 200 * 11;
#X obj 712 283 expr if($f1 <= 1 \, 0 \, $f1);
#X obj 713 313 sel 0;
#X obj 689 434 s screenLine2;
#X msg 689 409 2: Accent Off;
#X msg 634 361 1e+07;
#X text 703 363 not really off \, just really long hahah;
#X msg 300 761 0;
#X obj 318 797 s led;
#X obj 348 702 t b b;
#X msg 479 753 3;
#X msg 408 768 0;
#X obj 426 804 s led;
#X obj 456 709 t b b;
#X msg 371 746 7;
#X msg 33 252 0;
#X obj 33 280 s led;
#X obj 33 198 sel 0;
#X obj 33 220 delay 200;
#X obj 300 739 delay 50;
#X obj 408 746 delay 50;
#N canvas 7 50 316 301 tuneup 0;
#X obj 31 224 throw~ outL;
#X obj 142 224 throw~ outR;
#X obj 67 40 r notes;
#X obj 67 93 pack 0 0 0, f 11;
#X obj 67 145 voice;
#X obj 67 66 poly 1 1, f 11;
#X obj 67 119 route 1, f 15;
#X connect 2 0 5 0;
#X connect 3 0 6 0;
#X connect 4 0 0 0;
#X connect 4 0 1 0;
#X connect 5 0 3 0;
#X connect 5 1 3 1;
#X connect 5 2 3 2;
#X connect 6 0 4 0;
#X restore 951 68 pd tuneup;
#X obj 499 696 sampler-voice metro2.wav 6;
#X msg 73 542 \; screenLine1 1: Tempo \; screenLine2 2: Accent 4 \;
screenLine3 3: Metro Tone \; screenLine4 4: Synth Tone \; screenLine5
Aux: Start / Stop \;;
#X text 1026 69 for tuning up;
#X obj 747 250 change -1;
#X obj 953 241 change -1;
#X obj 1106 244 change -1;
#X obj 953 289 s screenLine3;
#X obj 293 103 r knob1;
#X obj 293 125 * 250;
#X obj 293 151 + 10;
#X obj 372 212 i;
#X obj 372 234 change -1;
#X obj 110 218 i;
#X obj 110 240 change -1;
#X msg 372 258 \; screenLine1 1: Tempo \$1 BPM \;;
#X msg 110 264 \; screenLine1 1: Tempo \$1 BPM MIDI \;;
#X obj 184 139 t f b;
#X obj 184 111 tgl 15 0 empty empty empty 17 7 0 10 -262144 -1 -1 0
1;
#X obj 184 84 sel 1;
#X obj 399 348 midirealtimein;
#X obj 399 370 sel 250 251;
#X text 408 45 a MIDI enabled metronome with simple synth for tuning
up;
#X text 688 153 knob 2 selects beat accent;
#X text 383 327 reset counter on midi start;
#X obj 153 337 i;
#X obj 153 359 change -1;
#X msg 153 383 \; screenLine1 1: Tempo \$1 BPM LINK \;;
#X connect 0 0 5 0;
#X connect 1 0 55 0;
#X connect 2 0 23 0;
#X connect 2 0 24 0;
#X connect 3 0 59 0;
#X connect 4 0 56 0;
#X connect 6 0 13 0;
#X connect 7 0 0 0;
#X connect 7 0 10 0;
#X connect 8 0 14 0;
#X connect 8 0 17 0;
#X connect 9 0 8 0;
#X connect 10 0 1 0;
#X connect 10 0 42 0;
#X connect 10 1 46 0;
#X connect 13 0 9 0;
#X connect 14 0 8 1;
#X connect 15 0 17 1;
#X connect 16 0 8 1;
#X connect 17 0 7 0;
#X connect 18 0 30 0;
#X connect 19 0 60 0;
#X connect 20 0 73 0;
#X connect 21 0 58 0;
#X connect 22 0 33 0;
#X connect 25 0 26 0;
#X connect 27 0 31 0;
#X connect 29 0 61 0;
#X connect 30 0 3 0;
#X connect 31 0 19 0;
#X connect 32 0 28 0;
#X connect 33 0 21 0;
#X connect 34 0 35 0;
#X connect 35 0 37 0;
#X connect 35 0 38 0;
#X connect 35 1 15 0;
#X connect 35 1 25 0;
#X connect 37 0 36 0;
#X connect 38 0 15 0;
#X connect 40 0 41 0;
#X connect 42 0 52 0;
#X connect 42 1 47 0;
#X connect 43 0 45 0;
#X connect 44 0 45 0;
#X connect 46 0 53 0;
#X connect 46 1 43 0;
#X connect 47 0 41 0;
#X connect 48 0 49 0;
#X connect 50 0 51 0;
#X connect 51 0 48 0;
#X connect 52 0 40 0;
#X connect 53 0 44 0;
#X connect 58 0 34 0;
#X connect 59 0 29 0;
#X connect 60 0 32 0;
#X connect 62 0 63 0;
#X connect 63 0 64 0;
#X connect 65 0 66 0;
#X connect 66 0 69 0;
#X connect 67 0 68 0;
#X connect 68 0 70 0;
#X connect 71 1 16 0;
#X connect 72 0 71 0;
#X connect 72 0 50 0;
#X connect 73 0 72 0;
#X connect 74 0 75 0;
#X connect 75 0 16 0;
#X connect 75 1 16 0;
#X connect 79 0 80 0;
#X connect 80 0 81 0;
#X restore 924 452 pd sounds;
#X connect 0 0 4 0;
#X connect 1 0 2 0;
#X connect 2 0 19 1;
#X connect 3 0 29 5;
#X connect 4 0 19 0;
#X connect 5 0 3 0;
#X connect 6 0 5 0;
#X connect 7 0 24 0;
#X connect 8 0 29 4;
#X connect 9 0 18 0;
#X connect 10 0 29 1;
#X connect 11 0 29 2;
#X connect 12 0 29 3;
#X connect 17 0 7 0;
#X connect 18 0 0 0;
#X connect 18 1 29 0;
#X connect 19 0 20 0;
#X connect 21 0 7 0;
#X connect 22 0 7 0;
#X connect 26 0 25 0;
#X connect 27 0 23 0;
#X connect 27 1 31 0;
#X connect 29 0 1 0;
#X connect 29 0 27 0;
#X connect 29 1 27 1;
#X connect 29 2 27 1;
#X connect 30 0 34 0;
#X connect 31 0 33 0;
#X connect 33 0 3 0;
#X connect 34 0 35 2;
#X connect 35 0 41 0;
#X connect 35 1 26 0;
#X connect 36 0 35 0;
#X connect 37 0 35 1;
#X connect 38 0 35 3;
