#N canvas 136 36 1440 734 10;
#X obj 239 402 vsl 15 128 0 1 0 0 empty empty empty 0 -9 0 10 -262144
-1 -1 5550 1;
#X obj 336 394 vsl 15 128 1 4 0 0 empty empty empty 0 -9 0 10 -262144
-1 -1 439 1;
#X floatatom 336 543 5 0 0 0 - - -;
#X floatatom 719 168 5 0 0 0 - - -;
#X floatatom 239 547 5 0 0 0 - - -;
#X msg 719 138 4;
#X obj 719 106 loadbang;
#N canvas 400 23 415 596 metronome 0;
#X obj 68 226 snapshot~;
#X obj 94 191 bang~;
#X obj 81 274 i;
#X obj 66 330 change, f 7;
#X floatatom 68 130 5 0 0 0 - - -;
#X floatatom 63 71 5 0 350 0 - - -;
#X obj 64 100 / 60;
#X msg 132 61 0;
#X obj 117 20 loadbang;
#X obj 68 158 phasor~ 1;
#X msg 93 50 60;
#X obj 48 19 inlet;
#X obj 65 378 outlet;
#X text 124 279 divide clock into steps;
#X obj 137 365 change;
#X obj 137 387 print;
#X obj 81 252 * 119;
#X obj 81 299 / 119;
#X connect 0 0 16 0;
#X connect 1 0 0 0;
#X connect 2 0 17 0;
#X connect 3 0 12 0;
#X connect 4 0 9 0;
#X connect 5 0 6 0;
#X connect 6 0 4 0;
#X connect 7 0 9 1;
#X connect 8 0 7 0;
#X connect 8 0 10 0;
#X connect 9 0 0 0;
#X connect 10 0 5 0;
#X connect 11 0 5 0;
#X connect 14 0 15 0;
#X connect 16 0 2 0;
#X connect 17 0 3 0;
#X restore 73 75 pd metronome;
#X obj 434 112 tgl 15 0 empty empty empty 17 7 0 10 -262144 -1 -1 0
1;
#X obj 301 130 r beat-clock;
#X obj 432 48 bng 15 250 50 0 empty empty empty 17 7 0 10 -262144 -1
-1;
#X obj 433 69 bng 15 250 50 0 empty empty empty 17 7 0 10 -262144 -1
-1;
#X obj 433 89 bng 15 250 50 0 empty empty empty 17 7 0 10 -262144 -1
-1;
#X text 454 69 start;
#X text 454 47 stop;
#X text 456 89 start on next beat;
#X text 457 112 loop;
#X floatatom 67 43 5 0 0 0 - - -;
#X obj 301 165 t f f;
#X obj 263 580 -;
#X floatatom 264 615 50 0 0 0 - - -;
#X msg 118 51 0;
#X msg 162 43 60;
#X obj 400 375 print;
#X obj 69 104 s beat-clock;
#X obj 1161 229 text define -k seq-1;
#A set 0 length 4.61667 \; 1 note 70 100 \; 1.11667 note 70 0 \; 1.35
note 71 100 \; 1.48333 note 71 0 \; 1.65 note 65 100 \; 1.8 note 65
0 \; 1.96667 note 69 100 \; 2.08333 note 69 0 \;;
#X msg 1161 202 clear;
#X obj 387 326 seq-reader seq-1;
#X text 520 327 simple reader;
#X obj 353 233 seq-clocker;
#X obj 1160 9 r notes;
#X floatatom 492 352 5 0 0 0 - - -;
#X text 445 237 rewind the sequence on start or loop;
#X obj 499 389 i;
#N canvas 4 50 450 300 prepend-event-name 0;
#X obj 103 169 list append;
#X obj 145 61 t b a;
#X msg 121 116 note;
#X obj 151 20 inlet;
#X obj 130 224 outlet;
#X connect 0 0 4 0;
#X connect 1 0 2 0;
#X connect 1 1 0 1;
#X connect 2 0 0 0;
#X connect 3 0 1 0;
#X restore 1179 63 pd prepend-event-name;
#X obj 1042 173 seq-recorder seq-1;
#X obj 963 105 r beat-clock;
#X obj 1086 127 bng 15 250 50 0 empty empty empty 17 7 0 10 -262144
-1 -1;
#X obj 1186 140 bng 15 250 50 0 empty empty empty 17 7 0 10 -262144
-1 -1;
#X text 1108 126 stop;
#X text 1207 140 arm;
#X floatatom 1045 218 5 0 0 0 - - -;
#X obj 647 101 /;
#X floatatom 645 141 5 0 0 0 - - -;
#X floatatom 675 46 5 0 0 0 - - -;
#X obj 675 65 t b f;
#X floatatom 624 36 5 0 0 0 - - -;
#X floatatom 112 470 5 0 0 0 - - -;
#N canvas 80 99 660 336 count-beats 0;
#X obj 175 216 + 1;
#X msg 230 99 0;
#X obj 126 152 <;
#X obj 126 178 sel 1;
#X obj 129 117 t f f;
#X obj 141 219 i 1;
#X text 225 151 when current value is lees than previous value the
phasor rolled over and we increment the beat count.;
#X obj 125 47 inlet;
#X obj 136 269 outlet;
#X obj 303 37 inlet;
#X text 171 44 beat clock in;
#X text 348 38 reset;
#X text 184 271 count;
#X connect 0 0 5 1;
#X connect 1 0 2 1;
#X connect 1 0 5 0;
#X connect 2 0 3 0;
#X connect 3 0 5 0;
#X connect 4 0 2 1;
#X connect 4 1 2 0;
#X connect 5 0 0 0;
#X connect 5 0 8 0;
#X connect 7 0 4 0;
#X connect 9 0 1 0;
#X restore 112 444 pd count-beats;
#X obj 184 408 bng 15 250 50 0 empty empty empty 17 7 0 10 -262144
-1 -1;
#X obj 77 502 == 10000;
#X obj 77 523 sel 1;
#X text 491 469 10000 ticks \, 1000 bpm \, 201 divs \, 1/3 loop len
\, error: 0.00025;
#X text 494 495 10000 ticks \, 1000 bpm \, 240 divs \, 1/3 loop len
\, error: 0.004167, f 63;
#X msg 158 18 1000;
#X text 443 584 0.999893;
#X obj 264 647 print;
#X obj 663 624 bng 15 250 50 0 empty empty empty 17 7 0 10 -262144
-1 -1;
#X obj 654 675 dac~;
#X obj 663 647 sampler-voice metro1.wav 0;
#N canvas 80 99 660 336 count-beats 0;
#X obj 175 216 + 1;
#X msg 230 99 0;
#X obj 126 152 <;
#X obj 126 178 sel 1;
#X obj 129 117 t f f;
#X obj 141 219 i 1;
#X text 225 151 when current value is lees than previous value the
phasor rolled over and we increment the beat count.;
#X obj 125 47 inlet;
#X obj 136 269 outlet;
#X obj 303 37 inlet;
#X text 171 44 beat clock in;
#X text 348 38 reset;
#X text 184 271 count;
#X connect 0 0 5 1;
#X connect 1 0 2 1;
#X connect 1 0 5 0;
#X connect 2 0 3 0;
#X connect 3 0 5 0;
#X connect 4 0 2 1;
#X connect 4 1 2 0;
#X connect 5 0 0 0;
#X connect 5 0 8 0;
#X connect 7 0 4 0;
#X connect 9 0 1 0;
#X restore 616 573 pd count-beats;
#X obj 406 681 sampler-voice metro2.wav 0;
#X msg 122 16 500;
#X msg 848 268 loop 1;
#X msg 849 291 start;
#X msg 849 317 start-sync;
#X msg 850 344 length 2 3;
#X connect 0 0 4 0;
#X connect 0 0 48 0;
#X connect 1 0 2 0;
#X connect 1 0 60 0;
#X connect 2 0 19 1;
#X connect 3 0 29 5;
#X connect 4 0 19 0;
#X connect 5 0 3 0;
#X connect 6 0 5 0;
#X connect 7 0 24 0;
#X connect 8 0 29 4;
#X connect 9 0 18 0;
#X connect 10 0 29 1;
#X connect 11 0 29 2;
#X connect 12 0 29 3;
#X connect 17 0 7 0;
#X connect 18 0 0 0;
#X connect 18 1 29 0;
#X connect 19 0 20 0;
#X connect 21 0 7 0;
#X connect 22 0 7 0;
#X connect 26 0 25 0;
#X connect 27 0 23 0;
#X connect 27 1 31 0;
#X connect 29 0 1 0;
#X connect 30 0 34 0;
#X connect 31 0 33 0;
#X connect 34 0 35 2;
#X connect 35 0 41 0;
#X connect 35 1 26 0;
#X connect 36 0 35 0;
#X connect 37 0 35 1;
#X connect 38 0 35 3;
#X connect 42 0 43 0;
#X connect 42 0 29 5;
#X connect 44 0 45 0;
#X connect 45 0 42 0;
#X connect 45 1 42 1;
#X connect 46 0 42 0;
#X connect 47 0 50 0;
#X connect 48 0 47 0;
#X connect 49 0 48 1;
#X connect 50 0 51 0;
#X connect 51 0 21 0;
#X connect 54 0 7 0;
#X connect 57 0 59 0;
#X connect 59 0 58 1;
#X connect 60 0 57 0;
#X connect 61 0 58 0;
#X connect 62 0 7 0;
